<?xml version="1.0" standalone="no"?>
<!DOCTYPE svg PUBLIC "-//W3C//DTD SVG 20010904//EN"
 "http://www.w3.org/TR/2001/REC-SVG-20010904/DTD/svg10.dtd">
<svg version="1.0" xmlns="http://www.w3.org/2000/svg"
 width="654.000000pt" height="421.000000pt" viewBox="0 0 654.000000 421.000000"
 preserveAspectRatio="xMidYMid meet">

<g transform="translate(0.000000,421.000000) scale(0.100000,-0.100000)"
fill="#000000" stroke="none">
<path d="M5 3470 c0 -410 1 -577 2 -372 2 204 2 540 0 745 -1 204 -2 37 -2
-373z"/>
<path d="M660 4195 c0 -8 4 -15 8 -15 5 0 28 -19 52 -42 l44 -43 -47 -3 c-26
-2 -47 -6 -47 -9 0 -3 17 -21 37 -39 20 -19 32 -34 26 -34 -7 0 -18 8 -25 18
-7 10 -28 24 -45 31 -28 12 -36 11 -58 -3 -35 -23 -39 -50 -31 -205 11 -232
16 -351 20 -481 5 -178 32 -250 188 -501 36 -59 75 -132 87 -163 25 -67 86
-189 106 -214 8 -9 28 -37 45 -60 17 -24 45 -51 61 -60 26 -16 29 -22 29 -72
0 -30 11 -165 25 -300 31 -302 31 -320 7 -320 -46 0 -123 34 -190 84 -86 64
-128 74 -232 57 -38 -6 -148 -11 -246 -11 l-176 0 -64 -50 c-109 -87 -155
-166 -195 -327 -12 -51 -26 -90 -30 -87 -5 3 -9 -285 -9 -639 l0 -644 82 -16
c247 -49 124 -47 3395 -47 l3063 0 0 620 0 619 -41 11 c-22 6 -53 8 -69 5 -18
-4 -31 -2 -36 7 -9 13 -52 165 -61 213 -3 17 -9 35 -14 41 -5 6 -11 37 -15 70
-11 97 -15 102 -163 198 -210 136 -310 173 -437 161 -130 -12 -378 -71 -412
-98 -7 -5 -15 -7 -18 -4 -4 4 5 182 20 367 2 25 4 78 5 118 1 41 5 72 11 72 6
0 28 11 49 24 50 32 111 150 166 326 31 95 63 160 133 264 45 66 76 126 92
174 21 68 22 84 16 205 -3 73 -11 155 -17 182 -7 28 -12 120 -13 205 -1 136
-4 159 -22 190 -28 48 -54 49 -110 4 l-46 -38 16 38 c8 20 25 49 36 63 11 14
20 32 20 39 0 8 5 14 10 14 6 0 10 4 10 8 0 4 -15 9 -32 10 -49 4 -51 14 -12
60 l36 42 -335 0 c-280 -1 -337 -3 -347 -15 -15 -18 1 -20 19 -2 14 12 14 10
-6 -40 -6 -16 -5 -16 10 -4 10 8 17 9 17 3 0 -6 -10 -18 -22 -26 -18 -13 -19
-16 -5 -16 9 0 17 -5 17 -11 0 -8 6 -7 17 2 13 11 13 8 -3 -16 -18 -27 -18
-29 -1 -22 16 6 16 4 -2 -19 -32 -40 -25 -51 9 -16 17 18 30 28 30 24 0 -4
-16 -24 -36 -45 -25 -26 -31 -37 -20 -37 9 0 16 4 16 9 0 5 21 26 48 47 l47
38 -44 -48 c-32 -36 -40 -51 -32 -59 9 -9 14 -8 21 3 6 9 10 10 10 3 0 -6 -4
-15 -10 -18 -5 -3 -10 -11 -10 -17 0 -6 10 -3 22 8 l22 19 -22 -32 c-30 -43
-27 -65 5 -28 l25 30 -21 -36 c-30 -52 -26 -58 16 -18 l36 34 -21 -32 c-12
-17 -22 -36 -22 -42 0 -6 -5 -20 -12 -31 -18 -29 -1 -37 22 -10 11 13 20 21
20 18 0 -9 -33 -103 -39 -113 -12 -17 -6 -70 7 -70 7 0 12 -3 12 -7 0 -5 0
-15 0 -24 0 -8 -5 -12 -10 -9 -8 5 -7 12 2 23 12 15 11 16 -5 3 -13 -11 -15
-17 -6 -28 10 -11 7 -22 -10 -53 -19 -35 -20 -42 -8 -54 11 -11 17 -12 26 -3
7 7 12 8 11 2 -5 -22 1 -27 15 -15 13 11 14 10 9 -4 -4 -10 -13 -15 -20 -12
-15 6 -19 1 -28 -37 -5 -20 -3 -27 5 -22 8 5 9 1 4 -14 -4 -13 -2 -21 6 -21 8
0 8 -5 -2 -17 -10 -11 -10 -14 -1 -9 17 10 15 0 -5 -19 -13 -13 -14 -18 -3
-25 7 -4 10 -12 6 -18 -3 -6 1 -15 9 -20 15 -8 15 -10 1 -21 -19 -16 -21 -35
-3 -25 9 6 9 4 1 -7 -10 -13 -15 -49 -7 -49 2 0 14 7 28 16 19 12 28 13 46 4
12 -7 19 -8 16 -2 -4 5 4 19 17 31 32 30 65 15 64 -28 -1 -15 2 -33 6 -40 4
-7 2 -19 -5 -27 -9 -11 -9 -18 -1 -26 9 -9 12 -9 12 0 0 7 5 12 12 12 6 0 3
-10 -8 -21 -14 -16 -15 -23 -6 -26 17 -6 15 -28 -3 -43 -12 -10 -15 -10 -15 3
0 9 -4 19 -10 22 -11 7 -11 6 16 -77 10 -32 22 -58 26 -58 4 0 5 6 2 14 -3 7
4 31 15 52 10 22 22 58 26 81 4 24 11 45 15 48 5 3 7 11 4 18 -2 7 0 44 6 82
6 39 17 119 25 178 8 60 17 113 20 118 3 5 13 34 21 66 8 31 20 63 26 70 6 7
7 13 3 13 -3 0 3 12 14 26 12 15 21 32 21 38 0 15 79 96 93 96 8 0 8 3 0 11
-8 8 -17 8 -32 0 -20 -11 -20 -10 -9 16 6 15 22 39 35 54 13 14 23 29 23 35 0
12 86 94 99 94 15 0 28 -29 34 -73 3 -21 8 -41 11 -44 3 -3 0 -13 -7 -21 -9
-11 -9 -16 -1 -19 20 -7 4 -37 -32 -60 -39 -26 -47 -14 -8 14 17 13 26 30 29
56 1 20 0 37 -4 37 -9 0 -87 -85 -116 -126 -22 -30 -62 -144 -86 -244 -7 -30
-16 -59 -20 -65 -3 -5 -12 -28 -19 -50 -7 -22 -30 -80 -51 -128 -50 -114 -59
-182 -29 -219 12 -16 29 -28 37 -28 13 0 12 5 -7 25 -27 29 -28 59 -5 141 18
59 33 89 43 79 3 -3 13 2 22 10 15 13 17 13 17 0 0 -8 -3 -13 -5 -10 -7 7 -32
-15 -32 -27 0 -6 6 -8 14 -5 8 3 21 -4 30 -18 13 -20 14 -25 0 -36 -8 -6 -12
-14 -9 -17 3 -3 -1 -12 -9 -21 -7 -9 -16 -27 -19 -41 -6 -22 -2 -20 28 15 37
43 41 52 49 130 8 69 -4 109 -35 115 -13 3 -24 10 -23 15 2 20 23 63 34 70 15
9 62 -35 56 -52 -7 -16 6 -17 22 -1 7 7 12 8 12 4 0 -5 -6 -14 -14 -20 -13
-10 -13 -13 0 -24 11 -10 14 -10 14 1 0 8 6 20 14 26 11 9 13 29 10 74 -5 65
-24 103 -62 123 -19 9 -20 13 -7 37 8 15 14 31 14 35 0 4 6 8 13 10 21 4 68
-43 68 -69 0 -13 7 -59 15 -102 8 -43 15 -106 15 -138 0 -41 4 -58 11 -54 11
8 11 202 -1 220 -9 14 -6 27 10 53 18 27 25 28 27 5 0 -10 5 -38 9 -63 22
-115 2 -341 -29 -324 -9 5 -9 4 0 -6 15 -17 -24 -90 -108 -203 -67 -90 -67
-89 -142 -327 -26 -82 -60 -146 -76 -142 -7 1 -10 -2 -7 -7 8 -12 -21 -34 -34
-26 -6 4 -9 1 -8 -6 2 -6 -2 -13 -8 -16 -7 -2 -12 17 -13 54 -2 77 -8 78 -17
4 -3 -34 -10 -61 -15 -61 -8 0 -6 31 7 105 4 22 8 51 9 65 3 40 15 60 48 77
36 18 66 52 67 74 0 8 5 20 11 26 6 6 11 38 12 71 2 46 -2 65 -15 78 -16 17
-18 16 -27 -9 -6 -15 -14 -27 -18 -26 -5 1 -18 1 -31 0 -23 -1 -23 -2 8 -33
28 -27 31 -36 25 -67 -8 -42 -35 -78 -45 -60 -5 6 -12 -2 -18 -20 -16 -45 -22
-38 -9 11 7 27 7 43 1 45 -6 2 -8 23 -4 53 3 27 3 47 -2 44 -4 -3 -8 -20 -8
-37 0 -57 -15 -60 -34 -7 -10 28 -22 50 -27 50 -5 0 -5 -7 0 -17 28 -52 40
-120 32 -183 -3 -20 -20 23 -33 83 -5 27 -12 47 -14 44 -9 -9 30 -168 40 -164
11 4 38 -17 31 -24 -3 -4 -10 -44 -21 -122 -4 -26 -11 -50 -17 -54 -6 -4 -8 6
-4 28 10 57 17 145 11 130 -5 -10 -11 -6 -20 15 -12 27 -13 24 -9 -41 3 -51 2
-61 -4 -37 -13 49 -17 47 -15 -11 2 -55 -10 -102 -24 -93 -5 3 -6 -19 -4 -48
2 -33 0 -56 -7 -60 -6 -4 -11 -39 -12 -79 0 -53 -3 -67 -10 -52 -8 17 -9 15
-5 -10 2 -16 0 -50 -4 -75 -4 -25 -8 -35 -9 -22 0 12 -6 22 -12 22 -6 0 -8
-19 -4 -53 3 -35 0 -67 -9 -93 -14 -36 -17 -34 -20 15 0 11 -3 22 -6 25 -3 3
-6 -28 -7 -69 -1 -44 -8 -86 -17 -102 -15 -27 -15 -25 -16 51 0 107 -11 90
-14 -23 -2 -50 -6 -94 -9 -98 -8 -7 -8 -8 -11 94 -3 115 -15 96 -15 -24 1
-106 0 -112 -35 -179 -32 -62 -35 -66 -37 -39 -1 21 -4 14 -11 -25 -12 -67
-27 -88 -30 -39 0 18 0 41 1 49 1 8 5 41 9 72 6 38 5 61 -2 68 -8 8 -7 13 3
19 7 5 9 10 3 12 -5 2 -13 36 -17 74 -8 85 -33 195 -47 212 -6 7 -7 13 -2 13
5 0 2 6 -6 13 -9 7 -21 23 -27 37 -23 48 -14 -8 12 -76 28 -74 30 -88 13 -78
-8 5 -9 -2 -4 -26 3 -19 11 -37 18 -41 6 -4 8 -14 5 -23 -4 -9 -3 -16 1 -16 8
0 10 -22 13 -200 1 -69 5 -132 9 -140 4 -8 1 -31 -6 -50 l-14 -35 3 45 c2 25
1 59 -3 75 -5 21 -7 8 -8 -45 -2 -67 -6 -91 -28 -152 -11 -32 -20 -19 -16 25
3 23 1 39 -3 35 -4 -4 -10 -28 -12 -53 -4 -47 -20 -101 -28 -93 -2 2 0 29 4
59 7 38 6 58 -2 66 -9 9 -12 4 -14 -25 -4 -78 -15 -162 -22 -166 -4 -3 -6 46
-5 109 1 63 -1 117 -5 119 -3 3 -6 -23 -5 -57 1 -34 -3 -67 -8 -74 -5 -6 -11
-35 -14 -65 -3 -29 -10 -71 -15 -93 -18 -65 -27 -20 -17 79 7 62 6 92 -1 99
-12 12 -14 3 -13 -68 0 -34 -7 -74 -34 -193 -3 -16 -10 -22 -19 -18 -11 4 -15
-2 -15 -24 0 -17 -4 -30 -9 -30 -5 0 -8 8 -6 17 2 10 4 26 4 37 1 12 6 16 16
12 13 -4 15 8 16 77 0 45 2 91 4 102 2 11 6 45 9 75 4 45 4 48 -3 16 -5 -21
-12 -41 -17 -45 -5 -3 -9 -27 -10 -53 -1 -69 -26 -191 -36 -176 -5 8 -8 2 -8
-17 0 -57 -12 -105 -26 -105 -15 0 -20 70 -7 84 5 4 8 11 8 14 3 43 18 83 29
79 11 -4 13 8 13 51 0 31 3 75 7 97 6 32 5 38 -5 28 -7 -7 -14 -28 -15 -45 -2
-18 -6 -48 -9 -67 -4 -23 -2 -37 7 -42 10 -7 10 -9 -2 -9 -9 0 -21 -15 -28
-32 -7 -18 -13 -33 -13 -33 0 0 -5 -20 -10 -45 -18 -86 -20 -95 -30 -105 -17
-17 -8 135 11 190 17 48 18 49 22 20 3 -16 6 2 7 40 1 39 5 87 10 108 5 20 5
37 1 37 -7 0 -21 -50 -25 -85 -4 -40 -18 -85 -27 -91 -7 -5 -9 0 -6 13 3 12 2
27 -3 34 -5 9 -9 -17 -9 -64 0 -68 -23 -187 -36 -187 -12 0 18 236 34 265 11
18 12 79 2 69 -9 -9 -18 -41 -19 -72 -1 -7 -5 -10 -11 -7 -6 4 -10 -8 -11 -27
-1 -53 -7 -89 -23 -153 l-16 -60 5 85 c2 48 15 124 30 175 25 91 33 145 16
115 -5 -8 -15 -42 -22 -75 -7 -33 -19 -68 -27 -77 -8 -10 -13 -18 -9 -18 3 0
-1 -26 -9 -57 -7 -32 -13 -65 -13 -73 -1 -13 0 -13 10 0 7 11 8 0 4 -40 -10
-89 -16 -110 -31 -110 -17 0 -17 10 -4 45 19 51 21 85 5 85 -10 0 -15 -10 -15
-32 0 -48 -18 -105 -35 -112 -10 -3 -15 1 -15 12 0 26 39 126 54 137 7 6 16
36 19 68 4 32 16 95 27 139 23 93 23 95 11 82 -6 -5 -12 -21 -15 -35 -7 -40
-67 -213 -77 -224 -6 -6 -8 0 -5 15 2 14 5 25 6 25 2 0 7 21 15 65 5 25 4 31
-3 20 -6 -8 -9 -17 -6 -21 2 -4 0 -10 -6 -14 -5 -3 -10 -13 -10 -22 0 -21 -41
-103 -52 -103 -4 0 -8 -7 -8 -16 0 -8 -14 -35 -30 -59 -16 -24 -30 -48 -30
-53 0 -5 -9 -17 -20 -27 -11 -10 -20 -23 -20 -29 0 -11 -125 -76 -145 -76 -5
0 11 20 35 44 25 24 50 50 55 58 6 9 28 40 50 69 22 30 51 74 64 99 14 25 35
59 48 76 13 17 23 35 23 40 0 5 20 36 45 69 25 33 45 65 45 71 0 7 4 14 8 16
5 2 26 27 47 56 21 30 44 52 54 51 33 -3 45 3 21 11 -24 8 -23 8 8 9 22 1 31
5 26 12 -4 7 0 9 13 5 12 -4 25 -1 33 9 7 8 18 15 25 15 9 0 12 10 8 31 -3 21
-1 29 6 24 6 -3 9 -11 6 -16 -4 -5 -2 -9 4 -9 5 0 13 5 16 10 3 6 2 10 -3 10
-5 0 -8 11 -7 25 3 21 1 23 -15 15 -31 -16 -37 -11 -11 10 28 24 20 26 -15 4
-33 -22 -43 -10 -13 16 l24 20 -37 -17 c-26 -11 -38 -24 -39 -37 0 -12 -3 -15
-6 -8 -2 6 -9 12 -15 12 -6 0 -6 -6 2 -15 7 -8 19 -15 26 -15 24 0 15 -14 -34
-50 -26 -19 -65 -51 -87 -71 -82 -74 -213 -175 -277 -214 -139 -84 -194 -104
-201 -76 -4 12 -7 11 -12 -7 -8 -24 -32 -25 -27 -1 1 8 -6 4 -17 -8 -23 -28
-28 -28 -34 -5 -3 14 -6 13 -14 -8 -10 -22 -12 -23 -18 -7 -9 23 -21 22 -28
-3 -7 -27 -27 -25 -27 3 -1 21 -2 20 -16 -5 -18 -35 -34 -36 -34 -2 0 14 -4
23 -10 19 -6 -3 -10 -17 -10 -31 0 -15 -6 -24 -16 -24 -12 0 -15 7 -11 26 4
24 3 25 -27 20 -111 -21 -188 -15 -141 11 20 12 66 86 94 153 39 91 62 144 73
167 6 13 9 26 5 29 -3 3 -13 -8 -21 -25 -9 -16 -36 -45 -61 -64 -24 -19 -68
-62 -96 -96 -29 -33 -57 -61 -64 -61 -6 0 -26 -16 -45 -35 -42 -43 -117 -70
-172 -61 -57 9 -121 57 -168 126 -22 32 -40 63 -40 69 0 5 -22 29 -49 53 -50
44 -88 101 -85 128 0 8 2 22 2 30 1 8 13 27 26 42 14 14 22 29 19 32 -4 3 2 6
11 6 12 0 16 5 12 15 -8 22 7 18 22 -6 8 -12 19 -18 28 -15 8 3 14 0 14 -6 0
-6 3 -9 6 -6 8 8 -44 108 -56 108 -14 0 -13 -2 15 -40 38 -51 30 -59 -11 -12
-19 23 -41 42 -47 42 -7 0 -25 7 -41 15 -22 12 -26 12 -17 1 9 -10 7 -17 -6
-27 -11 -9 -14 -10 -9 -2 5 9 2 11 -7 7 -8 -3 -18 -1 -22 5 -3 6 -11 11 -17
11 -6 0 -4 -8 5 -18 10 -10 15 -21 12 -24 -3 -3 6 -4 20 -2 14 1 36 -3 49 -10
23 -11 23 -13 9 -41 -9 -17 -22 -37 -30 -46 -25 -30 -23 -76 7 -137 15 -31 47
-117 70 -189 24 -73 49 -138 56 -144 23 -19 16 -24 -29 -25 -85 -3 -87 -3 -87
-24 0 -24 -25 -27 -34 -3 -6 14 -9 15 -15 4 -6 -8 -14 -10 -22 -5 -8 4 -34 10
-59 12 -24 2 -63 10 -85 18 -22 7 -45 14 -52 14 -25 0 -213 110 -249 146 -35
33 -99 85 -175 141 -16 12 -45 35 -63 51 -34 29 -34 30 -14 49 19 20 19 20
-21 56 -49 44 -77 49 -36 7 33 -34 26 -40 -12 -10 -34 26 -46 15 -13 -12 l25
-21 -32 6 c-27 5 -33 3 -33 -12 0 -9 10 -23 23 -30 21 -11 33 -51 15 -51 -15
0 -8 -15 13 -29 18 -11 23 -11 30 1 6 9 9 9 9 1 0 -6 -5 -15 -10 -18 -15 -10
-12 -35 5 -35 8 0 15 -7 15 -16 0 -8 3 -13 8 -11 9 6 7 -71 -2 -80 -3 -3 -6
-11 -6 -17 0 -6 4 -4 10 4 10 16 12 12 24 -40 6 -28 -13 -150 -26 -165 -4 -5
-8 18 -8 52 0 34 -4 64 -9 67 -11 7 -25 91 -22 129 2 19 -2 27 -13 27 -10 0
-16 9 -16 23 0 44 -17 51 -25 10 -12 -56 -12 -55 -13 -97 -3 -60 -23 -31 -26
36 -2 30 -6 61 -11 68 -5 9 -4 11 3 6 7 -4 12 -1 13 6 0 7 2 23 5 36 2 12 0
22 -4 22 -4 0 -8 -10 -9 -21 -2 -29 -10 -34 -27 -20 -10 9 -11 22 -4 59 5 26
12 54 15 62 10 24 12 42 5 35 -4 -4 -7 -10 -8 -13 0 -4 -3 -14 -7 -22 -3 -8
-12 -44 -20 -80 l-14 -65 -13 45 c-7 25 -15 40 -17 33 -2 -6 3 -35 11 -64 16
-51 13 -119 -4 -119 -15 0 -20 32 -15 88 4 40 3 51 -4 37 -5 -11 -10 -31 -11
-45 l-1 -25 -10 25 c-11 28 -3 105 16 160 15 42 30 127 21 119 -6 -6 -13 -30
-21 -74 -1 -11 -10 -38 -18 -60 -14 -36 -16 -38 -23 -18 -3 13 -11 23 -16 23
-6 0 -7 8 -3 17 4 10 9 33 11 52 3 19 7 37 9 42 3 4 1 10 -5 14 -5 3 -11 -3
-11 -14 -1 -12 -2 -24 -3 -28 -1 -5 -5 -30 -10 -56 -4 -27 -9 -57 -11 -68 -2
-10 0 -19 6 -19 5 0 9 10 10 23 0 21 1 21 9 2 5 -11 9 -35 9 -53 1 -28 -1 -31
-13 -20 -8 7 -12 15 -10 17 2 2 -12 24 -32 48 -28 34 -36 53 -36 81 1 46 10
151 18 217 3 28 3 47 -1 43 -3 -3 -8 -19 -10 -35 -10 -73 -19 -161 -19 -190
-1 -36 -7 -41 -26 -18 -24 29 -1 209 46 364 12 38 12 42 -2 31 -8 -7 -12 -15
-9 -18 3 -3 1 -10 -4 -16 -5 -6 -11 -24 -14 -41 -3 -16 -10 -50 -16 -75 -6
-25 -15 -79 -19 -120 l-7 -75 -19 27 c-15 23 -16 34 -7 80 6 29 13 63 16 76 2
12 7 27 11 33 7 12 15 89 9 89 -2 0 -11 -35 -20 -77 -10 -43 -20 -85 -23 -93
-8 -22 -9 -28 -11 -47 -1 -14 -5 -13 -16 7 -7 14 -11 39 -8 55 3 22 2 26 -6
15 -5 -8 -13 -11 -18 -7 -10 11 -8 111 3 128 5 8 9 21 9 29 1 8 4 29 8 45 3
17 9 46 11 65 3 19 10 50 15 68 5 17 6 32 2 32 -13 0 -63 -219 -64 -277 0 -21
-14 -15 -21 10 -11 40 -6 63 34 188 41 126 50 172 28 134 -7 -11 -14 -29 -15
-40 -2 -11 -6 -27 -10 -35 -3 -8 -7 -17 -7 -20 -7 -35 -53 -170 -57 -170 -23
0 -15 61 21 177 22 70 43 135 47 143 7 16 8 20 18 65 5 25 4 27 -5 12 -7 -11
-13 -24 -14 -30 -1 -7 -6 -19 -11 -27 -5 -8 -10 -23 -12 -35 -4 -27 -9 -47
-16 -65 -18 -42 -45 -129 -41 -133 2 -2 -2 -9 -9 -16 -11 -9 -17 -8 -28 5 -12
14 -7 36 35 158 27 77 53 152 59 166 6 14 11 27 11 30 1 3 5 10 9 17 4 6 3 15
-3 18 -6 4 -9 3 -8 -2 1 -4 -8 -30 -20 -57 -12 -27 -22 -53 -22 -58 0 -5 -9
-31 -21 -57 -11 -27 -22 -55 -23 -62 -2 -8 -8 -27 -14 -42 -7 -16 -12 -38 -13
-50 l0 -22 -11 22 c-8 17 -7 39 6 90 10 38 19 75 21 83 2 8 4 16 5 18 3 3 6
13 15 50 4 18 12 35 16 38 11 6 12 24 1 24 -9 0 -47 -100 -63 -170 -16 -69
-25 -80 -32 -41 -6 30 16 134 47 219 9 24 18 53 20 65 3 12 5 23 7 25 1 1 2 5
3 10 1 4 5 13 9 20 5 7 4 12 -2 12 -6 0 -12 -4 -12 -10 -3 -19 -4 -25 -10 -35
-4 -5 -18 -50 -33 -100 -48 -157 -42 -145 -50 -108 -10 43 32 212 76 303 18
38 14 57 -5 25 -17 -28 -77 -216 -77 -241 0 -33 -13 -37 -25 -7 -9 23 -7 44
12 117 13 48 30 104 38 123 8 20 15 43 14 52 0 17 -56 -127 -65 -168 -3 -14
-7 -28 -10 -33 -9 -14 -23 1 -20 20 2 9 7 37 12 62 9 54 8 48 22 83 7 16 12
34 12 40 0 14 -29 -40 -34 -62 -3 -15 -7 -28 -23 -68 -6 -15 -7 -15 -11 5 -2
13 0 31 4 40 4 9 8 20 9 25 2 4 3 8 5 10 1 1 3 10 5 20 6 30 -13 8 -20 -23 -4
-17 -11 -30 -17 -30 -12 0 -4 80 11 107 10 16 26 57 30 75 1 4 9 24 17 44 8
20 10 33 5 29 -6 -3 -11 -10 -11 -15 0 -5 -11 -33 -24 -62 -14 -29 -28 -66
-31 -81 -8 -31 -25 -37 -25 -9 0 19 32 120 50 157 20 42 40 98 37 102 -6 5
-62 -123 -77 -175 -7 -23 -17 -42 -22 -42 -12 0 -10 58 3 81 6 11 12 28 14 37
5 22 47 122 60 142 13 21 15 41 3 34 -5 -3 -7 -9 -4 -12 3 -3 -2 -14 -11 -24
-9 -11 -18 -25 -19 -32 -1 -7 -13 -38 -28 -69 -14 -32 -26 -64 -26 -72 0 -25
-21 -27 -46 -4 -13 12 -24 34 -24 47 0 29 6 27 12 -3 3 -18 21 -45 31 -45 2 0
10 26 17 58 7 31 21 79 32 106 10 27 16 51 14 54 -6 5 -8 2 -48 -112 -28 -81
-28 -81 -24 -31 2 28 7 58 11 68 4 10 3 17 -4 17 -6 0 -11 -7 -11 -16 0 -8 -4
-13 -8 -10 -12 7 -9 56 4 64 13 9 13 55 0 65 -7 5 -2 7 12 4 12 -3 20 -1 17 3
-3 5 -1 11 5 15 6 4 8 10 5 15 -3 5 -1 11 5 15 12 7 14 25 2 25 -4 0 -13 -14
-21 -31 -7 -16 -16 -28 -18 -25 -9 8 18 99 35 119 8 9 10 17 5 17 -14 0 -45
-48 -38 -60 3 -5 0 -12 -6 -16 -9 -5 -10 6 -5 44 4 33 3 51 -4 54 -7 2 -8 11
-4 22 7 19 8 19 15 0 5 -12 6 -3 4 23 -5 41 3 48 33 30 6 -5 12 -5 12 -1 0 5
15 -7 34 -25 29 -28 39 -32 65 -26 26 6 30 9 20 21 -6 8 -18 14 -27 14 -8 0
-12 3 -9 7 4 3 2 12 -4 19 -7 9 -4 14 11 19 21 7 21 8 -11 42 -19 19 -26 31
-16 28 20 -8 23 5 5 23 -7 7 -9 12 -5 12 4 0 3 8 -2 18 -7 13 -6 26 3 43 7 14
10 34 6 44 -4 11 -5 24 -3 28 3 4 -1 14 -7 22 -7 8 -9 15 -5 15 4 0 2 6 -4 14
-7 8 -8 17 -3 20 10 6 3 74 -10 82 -5 3 -4 12 3 20 9 11 9 18 1 26 -14 14 -16
32 -3 24 5 -3 9 12 9 34 0 22 -3 42 -9 45 -5 4 -14 16 -20 28 -12 22 -11 22
14 -1 l25 -24 0 36 c0 19 2 39 5 44 4 4 -1 21 -9 37 l-15 29 21 -19 c21 -19
21 -19 11 9 -15 37 -14 41 5 26 23 -20 14 10 -11 34 -15 15 -16 18 -3 13 28
-10 29 6 1 35 -18 19 -22 28 -12 28 8 0 20 -5 27 -12 15 -15 15 -8 2 27 -7 17
-7 24 0 20 16 -10 11 17 -7 39 -16 18 -16 19 -1 8 14 -12 19 -10 33 12 10 14
15 32 12 40 -6 16 26 32 43 21 5 -3 10 1 10 9 0 14 -38 16 -330 16 -287 0
-330 -2 -330 -15z m595 -45 c3 -5 1 -10 -4 -10 -6 0 -11 5 -11 10 0 6 2 10 4
10 3 0 8 -4 11 -10z m-596 -122 c6 -7 16 -13 22 -13 5 0 27 -29 49 -65 21 -36
53 -89 70 -118 18 -29 33 -59 34 -67 1 -8 9 -22 17 -32 28 -32 78 -122 85
-150 4 -16 10 -32 14 -38 5 -5 9 -32 9 -60 2 -56 7 -117 11 -125 7 -14 6 -69
-1 -64 -10 6 0 -25 13 -42 5 -7 11 -25 13 -40 5 -29 19 -98 30 -144 4 -14 8
-34 9 -45 2 -11 5 -22 6 -25 10 -21 -5 -60 -23 -60 -3 0 -13 20 -22 44 -13 33
-15 60 -11 108 5 51 2 79 -18 143 -39 129 -71 200 -109 243 -11 12 -17 22 -12
22 5 0 -1 10 -13 23 -11 12 -21 26 -20 30 0 4 -12 33 -27 63 -15 30 -28 60
-29 67 -4 16 -30 77 -67 155 -16 34 -27 68 -23 75 5 9 4 9 -6 0 -10 -9 -18 -5
-36 17 -24 28 -24 29 -8 69 17 44 23 48 43 29z m-31 -144 c7 -14 8 -23 2 -19
-15 9 -32 45 -22 45 5 0 14 -12 20 -26z m3 -51 c13 -16 12 -17 -3 -4 -10 7
-18 15 -18 17 0 8 8 3 21 -13z m5089 -62 c0 -13 -69 -65 -76 -58 -3 3 4 14 16
24 12 10 28 23 34 30 13 15 26 16 26 4z m-5060 -55 c0 -5 -7 -3 -15 4 -8 7
-15 20 -15 28 0 13 3 12 15 -4 8 -10 15 -23 15 -28z m5019 -29 c-18 -17 -35
-25 -37 -19 -5 15 62 74 67 60 2 -7 -11 -25 -30 -41z m-79 23 c0 -5 -5 -10
-11 -10 -5 0 -7 5 -4 10 3 6 8 10 11 10 2 0 4 -4 4 -10z m-4934 -47 c-7 -7
-26 7 -26 19 0 6 6 6 15 -2 9 -7 13 -15 11 -17z m5024 -18 c-13 -14 -27 -22
-32 -19 -5 4 3 19 19 36 15 16 29 24 31 18 2 -6 -6 -22 -18 -35z m-4946 0 c15
-32 16 -39 1 -80 -20 -60 -20 -105 1 -105 8 0 12 5 9 10 -3 6 1 10 10 10 8 0
18 7 22 15 5 14 8 14 24 -1 24 -21 27 -53 4 -34 -13 11 -14 10 -9 -3 3 -10 -2
-20 -15 -27 -19 -10 -21 -20 -21 -105 0 -86 2 -96 26 -124 14 -17 31 -28 36
-24 7 3 8 1 4 -6 -5 -7 9 -27 37 -52 28 -24 48 -52 53 -72 4 -17 9 -35 10 -39
1 -5 2 -22 3 -39 1 -34 21 -31 21 4 1 21 1 21 15 3 12 -16 12 -22 2 -35 -9
-12 -9 -13 1 -7 7 4 12 2 12 -6 -1 -17 -30 -56 -30 -40 0 7 -5 12 -11 12 -8 0
-10 -22 -7 -71 5 -60 10 -75 34 -100 15 -16 34 -29 41 -29 8 0 25 -12 39 -27
15 -16 33 -28 42 -28 10 0 17 -11 20 -34 3 -30 2 -33 -12 -22 -8 7 -15 16 -14
19 2 17 -3 23 -13 17 -7 -5 -6 -12 4 -23 16 -19 31 -182 16 -182 -5 0 -9 3
-10 8 -1 9 -6 85 -8 130 0 17 -5 32 -9 32 -4 0 -7 -34 -5 -75 1 -41 -2 -75 -6
-75 -14 0 -31 26 -23 35 4 5 2 5 -5 1 -20 -11 -115 154 -163 284 -27 75 -64
141 -99 182 -41 48 -81 112 -81 132 0 7 -9 31 -20 53 -11 22 -24 59 -29 82
-12 53 -12 191 0 191 5 0 9 -13 9 -30 0 -52 18 -32 24 28 13 112 17 148 20
194 4 40 20 88 30 88 2 0 11 -16 20 -35z m4954 -42 c-12 -13 -25 -23 -30 -23
-15 0 -8 24 14 47 16 17 24 20 29 11 5 -8 -1 -22 -13 -35z m-5034 -20 c-14
-196 -27 -235 -23 -68 3 115 5 125 19 125 4 0 6 -26 4 -57z m4398 -95 c-7 -7
-12 -8 -12 -2 0 6 3 14 7 17 3 4 9 5 12 2 2 -3 -1 -11 -7 -17z m512 -2 c-3 -8
-13 -17 -22 -21 -13 -5 -13 -2 3 15 21 24 26 25 19 6z m2 -42 c-21 -20 -20
-28 2 -19 13 5 14 3 5 -6 -18 -18 -35 -2 -23 22 6 10 15 19 21 19 6 0 3 -7 -5
-16z m-4662 -129 c5 -16 16 -46 24 -65 9 -19 16 -45 17 -57 0 -12 4 -25 7 -28
5 -6 -8 -62 -18 -73 -1 -2 -30 22 -63 54 -58 54 -74 85 -51 99 8 5 8 11 0 20
-8 9 -8 15 0 20 6 3 8 10 5 15 -9 15 25 47 48 46 15 -1 24 -11 31 -31z m260
-104 c-2 -3 -12 3 -22 13 -16 17 -16 18 5 5 12 -7 20 -15 17 -18z m4106 -11
c-6 -11 -13 -20 -16 -20 -2 0 0 9 6 20 6 11 13 20 16 20 2 0 0 -9 -6 -20z
m-26 -245 c-4 -8 -8 -15 -10 -15 -2 0 -4 7 -4 15 0 8 4 15 10 15 5 0 7 -7 4
-15z m-4178 -135 l2 -75 -15 43 c-20 59 -37 55 -30 -8 6 -47 5 -50 -13 -40
-10 6 -22 16 -26 22 -13 21 -5 69 16 96 11 13 20 32 20 42 0 26 10 30 28 12
13 -13 17 -37 18 -92z m64 -362 c5 -27 4 -38 -4 -38 -7 0 -12 23 -12 63 -1 34
0 51 3 37 2 -14 8 -42 13 -62z m4105 -237 c-3 -86 -8 -165 -10 -176 -2 -11 -7
-54 -10 -95 -14 -164 -25 -224 -50 -262 -23 -35 -24 -43 -2 -39 4 0 7 -3 7 -9
0 -5 -6 -10 -13 -10 -8 0 -14 -12 -14 -30 0 -16 -7 -38 -16 -48 -9 -10 -17
-24 -17 -32 0 -14 35 35 60 84 13 26 15 27 18 9 4 -28 -51 -133 -96 -182 -33
-37 -48 -65 -31 -59 14 5 65 71 99 128 19 32 20 26 4 -15 -3 -8 -2 -15 4 -15
28 0 -30 -100 -105 -179 -23 -25 -43 -50 -43 -55 0 -10 66 58 116 119 30 35
31 36 27 12 -3 -15 -11 -32 -19 -38 -8 -6 -14 -18 -14 -27 0 -8 -3 -12 -7 -9
-3 4 -15 -7 -25 -24 -10 -17 -38 -39 -61 -51 -23 -11 -54 -26 -70 -34 -15 -9
-37 -17 -48 -19 -12 -2 -45 -18 -75 -35 -67 -37 -77 -38 -32 -2 53 42 87 77
63 63 -51 -28 -170 -119 -170 -128 0 -6 -4 -15 -9 -20 -5 -5 -6 -3 -2 5 9 15
1 15 -25 2 -37 -20 -18 5 29 38 47 32 223 202 210 202 -4 0 -13 -6 -20 -13 -7
-6 -45 -39 -83 -72 -39 -33 -72 -63 -73 -68 -2 -4 -13 -12 -24 -18 -20 -11
-20 -10 1 20 12 17 27 31 33 31 14 0 138 130 138 144 0 6 -6 4 -13 -4 -24 -30
-117 -113 -122 -108 -3 3 38 47 90 99 64 63 94 100 92 111 -3 9 2 27 11 40 15
22 15 22 -3 8 -10 -8 -32 -28 -47 -44 -42 -43 -34 -21 12 34 39 46 50 68 30
55 -17 -11 -11 5 15 40 14 18 25 37 23 41 -3 12 20 52 43 78 11 11 17 27 15
35 -3 9 6 34 19 56 21 35 41 74 75 150 5 11 14 56 20 100 10 76 58 346 66 372
2 7 10 10 19 7 14 -6 15 -25 10 -163z m-4065 125 c0 -13 16 -75 35 -139 19
-63 36 -123 38 -133 2 -11 6 -26 10 -34 3 -8 11 -37 18 -65 6 -27 15 -54 19
-60 3 -5 12 -29 20 -53 7 -23 19 -47 27 -53 7 -6 13 -18 13 -25 0 -8 11 -31
24 -52 12 -20 27 -48 31 -61 4 -14 16 -38 26 -55 24 -39 24 -54 1 -33 -26 24
-35 9 -11 -17 11 -11 33 -37 49 -56 81 -93 102 -120 96 -120 -11 0 -96 95 -96
108 0 7 -5 10 -10 7 -10 -6 11 -35 115 -157 110 -128 114 -149 9 -48 -54 52
-90 86 -81 74 9 -11 14 -24 10 -28 -5 -4 -3 -6 4 -4 12 3 103 -88 103 -104 0
-4 3 -8 8 -8 10 -1 117 -100 107 -100 -5 0 2 -11 15 -25 41 -44 13 -27 -62 37
-106 89 -147 131 -141 142 4 5 1 6 -7 1 -9 -6 19 -39 97 -114 60 -58 129 -122
154 -142 24 -20 52 -51 63 -69 l19 -32 -35 23 c-29 20 -62 47 -163 134 -6 6
-29 26 -51 45 -21 19 -3 -3 41 -49 67 -70 153 -143 218 -186 8 -5 18 -21 22
-35 l7 -25 -20 20 c-12 11 -44 36 -73 55 -29 19 -70 51 -93 70 -53 46 -114 88
-100 69 6 -8 10 -22 9 -32 -3 -13 0 -15 9 -8 9 7 19 4 37 -12 13 -12 41 -35
62 -52 134 -104 163 -126 178 -130 9 -3 20 -13 24 -22 5 -14 2 -13 -16 3 -11
10 -23 18 -25 16 -2 -1 -28 15 -57 35 -29 21 -60 43 -69 48 -8 6 -41 27 -72
47 -97 65 -74 42 58 -57 70 -52 131 -95 135 -95 4 0 16 -10 27 -22 19 -23 19
-23 -2 -6 -11 10 -24 18 -29 18 -4 0 -22 10 -39 23 -56 42 -106 69 -106 58 0
-7 8 -15 18 -18 18 -7 68 -43 59 -43 -16 0 -291 149 -353 192 -96 65 -224 190
-224 218 0 20 2 21 17 9 9 -8 17 -12 18 -9 1 3 19 -10 39 -28 21 -18 35 -36
32 -39 -4 -4 -20 9 -36 28 -16 19 -29 29 -30 24 0 -16 156 -165 172 -165 7 0
-2 14 -20 31 -18 16 -30 34 -27 39 3 5 -29 46 -71 90 -80 82 -109 118 -102
125 7 7 23 -9 70 -68 26 -31 49 -53 52 -49 3 5 -11 24 -30 43 -43 41 -100 133
-108 174 -6 28 -6 28 5 8 13 -25 29 -30 29 -10 0 6 11 0 24 -15 13 -15 26 -24
29 -21 3 3 -16 32 -44 65 -53 64 -68 104 -18 49 27 -30 33 -32 46 -18 12 11
12 16 2 22 -7 5 -10 4 -5 -3 3 -6 2 -13 -3 -16 -12 -8 -82 95 -74 108 4 5 11
2 17 -9 15 -24 60 -74 50 -55 -4 8 -14 23 -22 32 -8 10 -12 25 -8 34 4 11 -2
26 -15 40 -12 12 -19 29 -16 36 2 7 -2 26 -10 42 -13 26 -13 28 0 23 13 -5 12
1 -3 36 -22 49 -18 59 9 26 23 -28 25 -24 10 20 -8 23 -15 29 -23 22 -8 -7
-12 -5 -13 7 -1 9 -4 40 -7 67 -10 86 -27 286 -33 378 -4 62 -2 87 6 87 6 0
11 -11 11 -24z m1625 -714 c-3 -3 -11 0 -18 7 -9 10 -8 11 6 5 10 -3 15 -9 12
-12z m2114 -229 c-28 -38 -84 -93 -93 -93 -6 0 14 25 44 55 55 55 74 70 49 38z
m-2858 -120 l24 -27 -32 23 c-33 23 -40 31 -25 31 5 0 19 -12 33 -27z m-209
-56 c0 -23 5 -48 10 -54 8 -10 5 -13 -10 -13 -24 0 -37 51 -26 106 5 29 9 33
16 20 5 -9 9 -35 10 -59z m3297 42 c-25 -16 -32 -9 -13 12 12 13 20 16 22 9 3
-7 -2 -16 -9 -21z m-3099 -34 c11 -13 10 -14 -4 -9 -9 3 -16 10 -16 15 0 13 6
11 20 -6z m-105 -65 c2 -22 -1 -40 -6 -40 -5 0 -9 15 -9 33 0 17 -3 43 -6 57
-4 21 -4 22 6 8 6 -10 12 -35 15 -58z m950 60 c3 -5 1 -10 -4 -10 -6 0 -11 5
-11 10 0 6 2 10 4 10 3 0 8 -4 11 -10z m-849 -36 c-3 -8 0 -11 8 -8 8 3 17 0
22 -7 4 -8 3 -10 -4 -5 -7 4 -12 3 -12 -3 0 -5 5 -11 12 -13 15 -5 19 -34 12
-82 -5 -32 -8 -36 -16 -22 -6 10 -8 35 -6 56 2 21 0 36 -4 34 -9 -6 -28 38
-28 62 0 8 5 12 11 9 6 -4 8 -13 5 -21z m70 -21 c-5 -12 24 -42 31 -33 2 3 25
-32 52 -77 52 -86 119 -170 230 -288 100 -107 168 -158 236 -179 33 -10 65
-19 70 -21 6 -2 -33 -4 -85 -5 -52 -1 -110 -3 -127 -4 -27 -3 -33 0 -33 16 0
11 -5 18 -12 15 -7 -2 -12 -11 -10 -21 2 -9 -1 -16 -6 -16 -19 0 -21 14 -5 32
15 17 15 20 -5 41 -12 13 -22 26 -22 30 0 4 -20 33 -45 66 -25 32 -45 63 -45
68 0 4 -20 35 -45 67 -24 33 -42 63 -40 67 6 9 -24 34 -32 25 -3 -3 -1 -18 6
-33 15 -33 21 -125 11 -168 l-7 -30 -9 30 c-5 17 -8 64 -8 105 1 44 -1 67 -6
55 -6 -17 -9 -14 -19 20 -6 22 -11 49 -11 60 -1 11 -9 36 -20 55 l-18 35 -8
-29 c-9 -37 -22 -16 -27 46 -2 25 -7 50 -11 56 -4 7 -2 12 5 12 7 0 5 8 -7 21
-19 22 -19 22 4 8 12 -8 20 -19 18 -26z m801 -15 c-3 -7 -5 -2 -5 12 0 14 2
19 5 13 2 -7 2 -19 0 -25z m478 -26 c-8 -26 -12 -55 -9 -64 3 -10 1 -18 -4
-18 -12 0 -6 83 8 120 1 3 2 9 1 13 -1 5 3 6 8 2 6 -3 5 -23 -4 -53z m-1565
-2 c0 -20 -2 -22 -10 -10 -5 8 -10 26 -10 40 0 20 2 22 10 10 5 -8 10 -26 10
-40z m1595 10 c-4 -17 -9 -29 -12 -26 -3 2 -2 19 2 36 4 17 9 29 12 26 3 -2 2
-19 -2 -36z m-2049 -97 c-8 -8 -82 33 -103 57 -12 14 -23 36 -23 49 0 21 8 16
65 -40 35 -34 63 -64 61 -66z m549 -20 c-3 -19 -8 -33 -10 -32 -9 11 -15 89
-8 129 l7 45 9 -54 c5 -29 6 -69 2 -88z m-50 76 c4 -27 4 -53 1 -56 -10 -10
-35 63 -29 85 9 37 21 25 28 -29z m1094 -12 c1 -16 -3 -26 -9 -22 -5 3 -10 25
-9 48 0 33 2 38 9 22 5 -11 9 -33 9 -48z m-1573 32 c19 -22 19 -22 -3 -8 -13
8 -23 17 -23 21 0 12 6 9 26 -13z m1536 -49 c-7 -9 -19 21 -16 43 4 35 6 34
13 -3 4 -19 5 -37 3 -40z m421 17 c-3 -20 -10 -37 -15 -37 -6 0 -7 14 -3 33
13 60 28 64 18 4z m-1377 -59 c2 -32 0 -58 -5 -58 -10 0 -27 98 -23 130 4 22
5 23 15 5 5 -11 12 -45 13 -77z m2039 61 c-11 -34 -49 -93 -52 -82 -5 15 35
103 47 103 7 0 9 -8 5 -21z m-695 -14 c0 -14 -4 -25 -9 -25 -4 0 -6 11 -3 25
2 14 6 25 8 25 2 0 4 -11 4 -25z m-1206 -148 c-4 -32 -9 -55 -13 -52 -3 4 -6
10 -7 13 0 4 -4 26 -8 50 -4 24 -5 65 -1 90 l8 47 14 -45 c9 -29 11 -65 7
-103z m923 128 c0 -8 -4 -12 -9 -9 -4 3 -8 9 -8 15 0 5 4 9 8 9 5 0 9 -7 9
-15z m239 -12 c-10 -10 -19 5 -10 18 6 11 8 11 12 0 2 -7 1 -15 -2 -18z m674
12 c0 -8 -4 -23 -9 -33 -5 -9 -19 -41 -32 -70 -30 -70 -42 -79 -68 -51 -22 24
-28 49 -12 49 6 0 22 23 38 51 31 58 83 91 83 54z m-1486 -43 c2 -4 7 -32 11
-62 l7 -55 -21 19 c-11 11 -21 24 -21 30 0 7 -9 29 -20 51 -11 22 -20 42 -20
46 0 8 57 -18 64 -29z m616 28 c0 -5 -7 -10 -15 -10 -8 0 -15 5 -15 10 0 6 7
10 15 10 8 0 15 -4 15 -10z m483 -8 c-6 -24 -33 -24 -33 0 0 11 7 18 19 18 14
0 18 -5 14 -18z m527 8 c0 -5 -5 -10 -11 -10 -5 0 -7 5 -4 10 3 6 8 10 11 10
2 0 4 -4 4 -10z m-2026 -77 c-4 -23 -2 -38 5 -42 17 -11 25 -154 8 -148 -8 2
-12 27 -13 69 -1 36 -5 71 -8 77 -12 19 -26 2 -18 -22 10 -31 9 -71 -3 -77
-15 -8 -19 88 -4 106 7 9 12 33 10 55 -1 21 1 44 5 50 12 20 25 -30 18 -68z
m95 0 c1 -18 -3 -33 -8 -33 -12 0 -18 44 -12 85 5 30 5 30 12 5 4 -14 7 -40 8
-57z m1291 63 c0 -9 -12 -14 -36 -14 -36 0 -36 12 1 21 33 8 35 8 35 -7z m30
-1 c0 -8 -4 -15 -10 -15 -5 0 -7 7 -4 15 4 8 8 15 10 15 2 0 4 -7 4 -15z m370
7 c0 -4 -13 -24 -29 -43 -20 -24 -28 -43 -25 -56 3 -12 -5 -40 -18 -66 -25
-46 -82 -117 -94 -117 -9 0 -54 49 -54 58 0 4 6 17 14 28 8 11 12 31 9 47 -6
29 -23 37 -23 11 0 -48 -34 -125 -71 -163 -43 -42 -59 -45 -104 -15 -28 18
-29 25 -11 119 2 11 -1 25 -6 32 -15 19 14 44 35 31 21 -11 23 5 2 22 -8 7
-15 23 -15 35 0 20 6 23 59 28 33 4 78 10 101 13 40 7 42 6 38 -17 -2 -17 -18
-32 -53 -51 -34 -19 -43 -28 -29 -28 25 0 77 25 122 58 17 13 32 20 32 14 0
-12 26 -10 37 3 4 4 3 5 -3 2 -6 -4 -19 2 -29 13 -20 23 -17 25 55 39 61 12
60 12 60 3z m-483 -17 c-6 -17 -37 -18 -37 -1 0 9 8 14 20 13 11 -1 19 -6 17
-12z m-212 -5 c3 -5 -1 -10 -10 -10 -9 0 -13 5 -10 10 3 6 8 10 10 10 2 0 7
-4 10 -10z m165 0 c0 -6 -23 -9 -52 -9 l-53 2 40 7 c60 11 65 11 65 0z m-1370
-36 c0 -14 -4 -22 -10 -19 -5 3 -10 17 -10 31 0 14 4 22 10 19 6 -3 10 -17 10
-31z m880 26 c0 -5 -4 -10 -10 -10 -5 0 -10 5 -10 10 0 6 5 10 10 10 6 0 10
-4 10 -10z m50 0 c0 -5 -7 -10 -15 -10 -8 0 -15 5 -15 10 0 6 7 10 15 10 8 0
15 -4 15 -10z m50 0 c0 -5 -6 -10 -14 -10 -8 0 -18 5 -21 10 -3 6 3 10 14 10
12 0 21 -4 21 -10z m168 3 c-10 -2 -26 -2 -35 0 -10 3 -2 5 17 5 19 0 27 -2
18 -5z m1145 -13 c-3 -12 -8 -19 -11 -16 -5 6 5 36 12 36 2 0 2 -9 -1 -20z
m-1739 -8 c7 -22 83 -74 91 -62 3 5 -5 17 -18 27 -39 31 -41 42 -5 32 18 -4
47 -11 63 -15 l30 -6 -39 -34 c-31 -27 -36 -35 -23 -40 10 -3 26 4 42 20 28
28 45 33 45 13 0 -7 9 -18 20 -25 11 -7 20 -23 20 -36 0 -13 13 -50 30 -81 27
-52 32 -83 10 -70 -5 3 -11 1 -15 -5 -11 -18 -30 -11 -71 30 -27 26 -46 56
-54 85 -7 24 -16 42 -21 39 -4 -2 -4 -15 1 -29 7 -17 5 -27 -7 -37 -10 -8 -18
-9 -20 -3 -2 6 -21 38 -43 71 -37 57 -67 144 -50 144 5 0 11 -8 14 -18z m1477
-5 c-6 -8 -8 -16 -5 -20 3 -3 -4 -10 -15 -17 -30 -15 -28 12 2 33 28 20 33 21
18 4z m374 -46 c-4 -28 -11 -51 -16 -51 -11 0 -7 45 4 56 4 4 7 19 7 32 0 14
3 23 6 19 3 -3 3 -29 -1 -56z m-928 7 c-17 -30 -36 -46 -67 -58 -51 -20 -41
-33 16 -20 21 5 42 10 46 10 10 0 -31 -127 -53 -164 -26 -45 -56 -57 -108 -44
-59 15 -73 40 -69 127 l3 71 40 -5 40 -5 -32 12 c-42 17 -62 36 -46 46 6 4 10
18 9 32 -1 22 4 26 44 30 25 3 80 7 123 8 l79 2 -25 -42z m979 -2 c-6 -34 -30
-54 -41 -36 -4 6 -2 10 4 10 5 0 15 16 22 35 16 42 24 38 15 -9z m-1524 11
c10 -16 -12 -38 -36 -36 -34 2 -42 -1 -26 -11 8 -5 32 -10 53 -10 38 0 39 0
34 35 l-5 35 47 1 c231 3 211 6 211 -36 0 -32 -3 -35 -42 -46 -69 -18 -76 -23
-41 -27 18 -2 42 2 54 8 30 17 39 0 39 -77 0 -72 -20 -102 -82 -128 -37 -15
-37 -15 -71 20 -33 34 -66 117 -70 179 -3 42 -27 46 -27 5 0 -35 19 -108 33
-126 12 -16 -38 -63 -67 -63 -37 0 -81 50 -109 125 -15 39 -28 84 -29 100 -2
17 -9 37 -17 45 -13 13 -11 16 14 20 43 8 129 -1 137 -13z m1158 -19 c-13 -11
-34 -33 -47 -51 -13 -17 -23 -26 -23 -20 0 7 6 18 13 25 6 7 13 20 15 28 4 22
56 63 61 48 2 -6 -7 -20 -19 -30z m-2038 -25 c-5 -39 -22 -34 -22 6 0 16 5 28
13 28 8 0 11 -11 9 -34z m2198 -28 c-15 -45 -34 -47 -25 -3 4 18 13 41 19 51
17 27 21 -4 6 -48z m-2009 -40 c1 -33 -7 -75 -16 -83 -3 -3 -5 3 -5 14 0 10
-3 43 -6 71 -8 66 4 103 17 58 5 -16 10 -43 10 -60z m1753 41 c-3 -14 -19 -38
-35 -53 -15 -15 -25 -32 -22 -37 4 -6 3 -8 -2 -4 -10 9 -35 -23 -28 -35 3 -4
12 -2 21 5 12 10 14 10 8 1 -11 -20 -44 -35 -43 -20 1 43 -3 48 -25 36 -22
-11 -22 -10 -6 6 14 15 20 16 32 5 10 -8 16 -8 16 -2 0 6 -5 14 -10 17 -6 4
-8 11 -5 16 4 5 -4 14 -17 19 -22 10 -22 10 -1 6 12 -2 27 2 34 10 15 19 29 9
24 -18 -3 -11 -1 -17 3 -14 4 4 6 11 5 14 -1 4 3 12 8 19 7 7 6 14 -1 18 -18
11 -11 23 10 18 16 -4 20 0 20 18 0 16 3 20 11 12 5 -5 7 -22 3 -37z m-1809
-54 c-5 -48 -12 -72 -22 -76 -8 -3 -11 -11 -7 -18 5 -9 4 -10 -4 -3 -8 8 -9
20 -2 40 5 17 12 56 16 89 4 40 9 55 16 48 6 -6 8 -36 3 -80z m172 -71 c3 -22
9 -41 13 -41 4 0 7 -6 8 -12 1 -7 5 -34 10 -60 8 -44 1 -80 -13 -67 -3 4 -8
31 -11 60 -4 30 -15 81 -25 113 -23 72 -24 85 -3 65 8 -9 18 -35 21 -58z
m-143 -23 c6 -64 0 -83 -22 -69 -10 6 -12 24 -6 70 3 33 10 61 14 61 4 0 10
-28 14 -62z m55 -65 c1 -67 -13 -84 -25 -30 -8 38 -6 125 4 141 9 15 19 -37
21 -111z m53 77 c2 -14 6 -29 10 -35 3 -5 5 -36 5 -68 0 -44 -4 -57 -14 -55
-8 2 -14 8 -15 13 0 6 -5 21 -10 35 -11 28 0 156 13 143 4 -4 9 -19 11 -33z
m1368 -16 c0 -8 -19 -13 -24 -6 -3 5 1 9 9 9 8 0 15 -2 15 -3z m160 -9 c0 -2
-6 -8 -13 -14 -10 -8 -14 -7 -14 2 0 8 6 14 14 14 7 0 13 -1 13 -2z m-1744
-36 c19 -22 19 -22 -1 -11 -11 6 -27 16 -35 22 -13 8 -13 10 1 10 9 0 24 -10
35 -21z m330 -55 c1 -43 -8 -62 -17 -38 -13 32 -10 76 4 71 6 -2 12 -17 13
-33z m47 -9 c4 -8 2 -17 -3 -20 -6 -4 -10 3 -10 14 0 25 6 27 13 6z"/>
<path d="M645 3270 c-3 -5 -2 -10 3 -10 4 0 14 -21 21 -47 17 -67 58 -122 111
-150 25 -13 60 -38 77 -55 18 -18 36 -28 40 -24 7 7 -66 79 -140 139 -35 27
-87 113 -87 142 0 17 -16 20 -25 5z"/>
<path d="M5152 1458 c-7 -7 -12 -16 -12 -21 0 -5 -16 -27 -35 -50 -36 -41 -48
-70 -19 -46 20 17 88 119 82 124 -2 3 -10 -1 -16 -7z"/>
<path d="M5020 1285 c-7 -9 -8 -15 -2 -15 5 0 12 7 16 15 3 8 4 15 2 15 -2 0
-9 -7 -16 -15z"/>
<path d="M1289 1813 c-13 -16 -12 -17 4 -4 9 7 17 15 17 17 0 8 -8 3 -21 -13z"/>
<path d="M1251 1693 c7 -10 15 -20 16 -22 2 -2 3 3 3 11 0 9 -7 19 -16 22 -15
6 -15 4 -3 -11z"/>
<path d="M1270 1389 c0 -19 57 -75 67 -65 4 3 -10 23 -30 44 -24 24 -37 31
-37 21z"/>
<path d="M2135 1110 c-3 -5 -1 -10 4 -10 6 0 11 5 11 10 0 6 -2 10 -4 10 -3 0
-8 -4 -11 -10z"/>
<path d="M2965 860 c3 -5 11 -10 16 -10 6 0 7 5 4 10 -3 6 -11 10 -16 10 -6 0
-7 -4 -4 -10z"/>
<path d="M3861 836 c-8 -10 -9 -16 -1 -21 6 -3 7 -12 4 -18 -4 -7 -3 -9 1 -4
7 6 15 57 9 57 -1 0 -7 -6 -13 -14z"/>
<path d="M1620 4108 c-18 -57 -39 -110 -47 -119 -7 -9 -10 -19 -7 -22 4 -4 6
-46 4 -94 -5 -150 0 -205 22 -248 9 -17 19 -44 22 -61 4 -18 16 -40 27 -50 20
-18 20 -18 9 11 -20 52 -24 213 -7 280 21 84 40 131 63 156 10 12 14 19 7 16
-8 -5 -8 -1 0 17 7 14 13 24 14 22 9 -9 2 -251 -8 -251 -2 0 -6 -44 -8 -83 -1
-15 -5 -21 -13 -16 -7 5 -8 3 -2 -7 10 -17 12 -26 18 -104 5 -66 11 -98 32
-164 8 -24 13 -46 10 -48 -2 -2 2 -16 10 -31 7 -14 10 -31 5 -36 -5 -7 6 -22
26 -39 18 -16 33 -24 33 -18 0 6 -9 16 -20 23 -11 7 -20 23 -20 35 0 27 7 29
32 6 10 -9 18 -13 18 -9 0 5 -14 21 -30 36 -20 19 -33 43 -39 74 -8 44 -7 150
2 191 2 11 8 43 12 70 11 78 107 265 135 265 6 0 8 -5 4 -12 -4 -7 -3 -8 5 -4
8 5 9 12 2 19 -6 9 3 25 31 55 22 24 38 40 36 35 -2 -4 -19 -39 -37 -77 -48
-99 -66 -222 -51 -346 6 -52 14 -111 17 -130 4 -19 7 -38 7 -42 1 -3 4 -9 7
-12 3 -4 4 15 1 41 -4 45 5 57 13 16 2 -10 4 -19 5 -20 2 -2 3 -8 4 -15 0 -6
7 -13 13 -15 10 -4 9 4 -1 29 -12 28 -26 97 -28 143 -2 23 14 123 29 189 15
68 46 140 64 152 5 3 7 9 5 13 -3 4 10 25 29 47 19 21 35 34 35 28 0 -6 -7
-17 -15 -24 -8 -7 -15 -18 -15 -25 0 -7 -7 -18 -15 -25 -9 -7 -13 -15 -10 -18
3 -3 -1 -12 -7 -20 -7 -8 -13 -19 -14 -26 -1 -6 -10 -45 -19 -86 -26 -123 -31
-289 -10 -403 10 -54 14 -101 10 -105 -4 -4 -10 -1 -12 6 -3 7 -16 26 -29 41
-13 16 -24 33 -24 38 0 4 -9 14 -20 21 -27 17 -25 9 8 -30 54 -63 95 -142 109
-213 14 -68 20 -83 26 -74 2 2 0 42 -3 89 -3 47 -5 86 -4 88 1 2 24 -21 52
-50 63 -65 78 -59 19 8 -74 84 -75 88 -66 184 7 72 13 108 33 195 1 6 9 26 18
45 9 19 21 51 29 70 7 19 20 46 30 60 9 14 17 29 17 33 1 4 18 31 39 58 21 28
48 65 61 82 46 63 54 45 21 -48 -23 -67 -44 -156 -61 -259 -10 -67 -10 -81 18
-301 3 -22 7 -46 10 -54 3 -11 -1 -10 -19 2 -19 12 -24 13 -24 2 0 -8 3 -12 7
-10 11 7 50 -52 54 -82 6 -49 26 -113 36 -113 11 0 11 1 12 93 l1 67 36 -42
c42 -50 62 -84 53 -94 -4 -4 -1 -4 6 0 7 4 12 2 12 -6 0 -10 3 -9 9 1 13 20
-1 44 -66 114 -49 54 -64 78 -45 76 13 -1 151 -186 166 -224 5 -12 10 -15 13
-8 5 14 -72 137 -124 198 -19 22 -39 46 -44 53 -10 12 -6 53 11 102 4 14 11
34 14 44 6 18 8 18 31 -4 14 -13 25 -27 25 -32 0 -5 18 -34 39 -65 21 -31 37
-63 34 -70 -3 -8 3 -24 15 -36 11 -12 39 -54 62 -94 24 -40 47 -70 51 -67 5 3
-2 20 -15 37 -13 18 -38 61 -56 97 -18 36 -39 76 -46 90 -8 14 -12 30 -9 37 2
7 -2 10 -11 6 -7 -3 -14 0 -14 7 0 7 -14 30 -31 51 -17 21 -27 39 -23 39 4 0
-1 9 -11 20 -10 11 -21 17 -25 15 -10 -6 37 122 58 157 l16 28 20 -43 c11 -23
19 -45 18 -49 -1 -3 5 -12 14 -19 13 -10 13 -8 5 15 -7 17 -7 26 -1 26 6 0 10
-4 10 -8 0 -5 7 -17 15 -28 13 -18 -17 74 -33 101 -8 12 -13 69 -6 62 3 -3 7
-11 8 -19 2 -7 8 -24 13 -38 6 -14 19 -44 28 -67 9 -24 22 -43 28 -43 6 0 7
-3 4 -6 -3 -4 -2 -15 4 -25 5 -10 14 -56 21 -101 14 -109 16 -123 18 -123 1 0
3 -11 6 -24 2 -14 9 -30 15 -38 6 -7 8 -13 4 -13 -4 0 -2 -6 4 -14 6 -8 11
-18 10 -22 -1 -5 3 -22 9 -37 7 -16 12 -32 12 -36 0 -4 9 -16 20 -26 11 -10
20 -24 20 -30 0 -15 25 -37 33 -29 3 3 -3 21 -13 39 -34 60 -61 168 -67 263
-3 50 -3 92 0 92 7 0 41 -59 42 -72 0 -3 3 -10 8 -14 18 -18 4 26 -23 71 -27
45 -42 113 -22 101 8 -5 52 -90 56 -109 6 -26 20 -52 33 -60 7 -4 13 -13 13
-19 0 -7 8 -30 19 -52 10 -23 25 -55 32 -73 7 -17 16 -30 19 -28 6 4 67 -89
128 -195 38 -65 16 -46 -29 25 -22 36 -45 65 -50 65 -15 0 -10 -16 11 -35 12
-10 18 -25 16 -32 -3 -8 5 -31 19 -53 13 -21 27 -51 30 -67 l5 -28 -10 27 c-6
14 -17 29 -25 32 -15 5 -13 -6 10 -59 21 -47 41 -155 27 -140 -7 7 -8 12 -11
41 0 8 -6 12 -11 9 -6 -4 -8 -10 -5 -15 3 -4 -2 -10 -10 -14 -10 -3 -15 1 -15
14 0 21 -56 54 -66 39 -3 -5 -10 -7 -15 -3 -5 3 -22 7 -37 10 -15 3 -46 18
-70 34 -23 17 -46 30 -51 30 -5 0 -11 9 -14 21 -3 12 -10 18 -16 14 -6 -3 -11
1 -11 10 0 12 -6 15 -20 10 -12 -4 -20 -2 -20 5 0 6 -4 9 -9 5 -5 -3 -13 -1
-16 5 -5 8 -11 7 -21 -1 -11 -9 -14 -8 -14 5 0 14 -4 15 -21 5 -29 -15 -68
-19 -75 -7 -4 6 -10 5 -14 -3 -6 -8 -13 -10 -22 -3 -15 11 -38 11 -55 1 -6 -4
-15 -2 -18 3 -5 8 -14 5 -27 -7 -11 -9 -19 -13 -18 -8 5 22 -1 27 -15 15 -12
-10 -19 -10 -27 -2 -8 8 -15 9 -25 1 -10 -9 -13 -8 -13 5 0 15 -2 15 -24 1
-19 -13 -25 -13 -29 -3 -3 9 -15 4 -38 -17 -27 -24 -29 -25 -11 -4 12 14 22
28 22 32 0 4 -20 7 -45 7 -24 0 -54 4 -67 9 -13 5 -43 14 -68 21 -87 24 -145
52 -192 94 -9 8 -18 12 -21 10 -2 -2 -12 5 -21 15 -10 11 -24 17 -32 14 -8 -3
-14 0 -14 7 0 7 -7 10 -15 6 -8 -3 -15 -1 -15 4 0 20 -41 21 -68 1 -16 -11
-40 -22 -54 -25 -14 -2 -53 -12 -87 -22 -50 -13 -72 -15 -107 -7 -49 11 -56 3
-26 -31 l17 -21 -24 20 c-13 11 -27 29 -31 39 -4 12 -9 15 -13 9 -4 -6 9 -34
28 -63 44 -65 45 -75 3 -22 -33 41 -48 51 -48 32 0 -17 131 -170 145 -170 7 0
18 -7 25 -15 7 -9 15 -13 18 -11 14 15 125 -71 118 -90 -3 -8 0 -14 7 -14 24
0 36 -21 27 -45 -6 -17 -5 -27 5 -35 8 -7 13 -15 10 -19 -2 -4 5 -20 16 -37
10 -16 19 -36 19 -45 0 -9 6 -22 14 -28 8 -7 12 -21 8 -33 -3 -15 -2 -19 7
-14 7 5 30 -13 59 -45 93 -104 102 -113 102 -104 0 6 4 4 9 -4 5 -8 19 -16 32
-18 12 -2 28 -8 36 -14 7 -6 13 -8 13 -3 0 5 4 2 10 -6 7 -12 12 -12 29 4 18
16 21 31 21 98 0 74 1 78 23 77 12 0 16 -3 9 -6 -9 -3 -10 -9 -2 -18 7 -8 7
-21 1 -39 -6 -14 -11 -42 -13 -62 -1 -20 -7 -38 -13 -41 -7 -2 -12 -10 -12
-17 0 -15 36 -10 38 5 1 5 2 13 3 18 0 5 5 13 9 18 5 4 7 1 5 -7 -2 -9 3 -14
11 -12 11 2 10 -2 -3 -22 -23 -35 -20 -56 4 -26 17 21 21 23 30 10 9 -13 12
-13 24 3 16 21 26 22 26 2 0 -18 16 -20 23 -2 4 9 8 8 16 -3 10 -13 12 -13 21
0 9 13 11 13 20 0 7 -10 13 -11 18 -4 7 10 12 11 92 18 25 2 53 7 62 11 9 4
22 4 28 0 5 -3 10 -1 10 6 0 7 3 9 7 6 3 -4 13 -1 21 6 13 10 15 9 9 -7 -7
-17 -6 -17 9 -5 10 8 24 14 33 14 9 0 22 4 29 8 13 9 42 -14 42 -34 0 -8 -7
-5 -20 6 -26 24 -25 7 1 -25 11 -14 18 -19 14 -12 -3 6 1 15 9 18 12 4 13 11
5 31 -5 14 -7 28 -5 31 10 10 59 4 66 -8 9 -15 47 8 89 54 14 14 29 26 35 26
6 0 23 23 38 50 15 28 22 48 16 44 -8 -5 -9 -1 -5 10 4 10 7 21 7 26 0 5 14
11 30 15 24 5 28 10 20 20 -7 9 -6 16 5 25 13 11 14 10 9 -4 -4 -9 -1 -16 6
-16 7 0 10 -7 6 -16 -4 -11 1 -18 15 -21 14 -4 33 -32 59 -90 24 -50 44 -82
50 -78 16 10 1 74 -26 114 -17 26 -21 39 -13 53 5 10 14 18 19 18 5 0 16 7 24
16 12 12 16 12 16 2 1 -8 6 -6 15 6 8 10 12 23 9 27 -3 5 -1 9 5 9 6 0 20 30
32 68 22 71 34 267 19 307 -5 11 -16 48 -26 83 -20 69 -32 82 -26 26 3 -27 1
-35 -8 -29 -7 5 -10 23 -7 53 2 24 0 61 -5 81 -11 46 -10 247 1 286 7 23 10 3
11 -80 3 -165 9 -225 24 -240 8 -8 20 -46 27 -85 7 -39 15 -73 19 -75 3 -2 4
72 2 165 -5 184 14 398 39 440 5 9 6 2 1 -20 -4 -19 -7 -123 -7 -232 0 -173 4
-222 19 -207 2 2 7 65 10 139 7 145 16 273 21 278 1 2 3 -59 4 -135 0 -76 3
-154 6 -173 22 -158 23 -238 3 -270 -9 -15 -16 -52 -17 -90 -2 -60 -40 -197
-63 -227 -5 -6 -11 -39 -14 -73 -2 -35 -7 -67 -10 -71 -5 -9 14 -11 81 -11 17
0 37 -4 46 -9 13 -6 18 -3 22 11 3 11 10 20 17 20 6 0 8 -4 5 -10 -11 -17 7
-11 21 8 11 14 13 15 14 2 0 -9 -6 -22 -12 -29 -11 -10 -10 -11 4 -6 9 4 19
13 22 21 3 9 11 12 17 9 7 -5 6 -12 -4 -23 -7 -10 -20 -33 -27 -52 -7 -19 -17
-39 -22 -44 -14 -17 -9 -46 7 -40 8 3 14 9 13 12 -3 17 18 51 59 93 l44 45
-23 30 -23 29 36 -28 c42 -32 51 -34 42 -9 -6 15 -4 14 16 -3 21 -19 24 -19
35 -3 15 21 26 13 26 -18 0 -25 42 -106 76 -148 18 -23 23 -25 47 -13 15 6 27
15 27 20 0 4 5 7 10 7 6 0 3 -12 -7 -26 -17 -27 -17 -27 4 -16 16 9 27 9 48
-2 l26 -14 -21 -15 -22 -15 24 -8 c12 -4 26 -7 30 -6 3 1 9 -5 12 -13 3 -8 1
-15 -5 -15 -6 0 -8 -4 -4 -10 3 -5 12 -7 20 -3 8 3 15 1 15 -4 0 -9 52 -43 65
-43 3 0 -1 7 -10 16 -9 9 -14 22 -11 29 3 9 -3 11 -17 8 -22 -4 -22 -4 2 16
25 23 21 27 -10 10 -15 -7 -24 -7 -35 2 -12 10 -12 13 3 25 10 7 13 14 6 14
-6 0 -15 -5 -18 -10 -8 -12 -35 -13 -35 -1 0 5 18 13 40 19 26 6 38 6 34 0 -6
-9 12 -6 54 9 6 3 12 -1 12 -8 0 -11 3 -11 10 1 7 10 12 12 18 4 4 -6 22 -10
40 -9 18 1 35 -2 38 -7 3 -5 12 -4 19 2 11 9 16 6 25 -11 7 -12 15 -17 19 -11
8 13 103 10 114 -3 4 -7 10 -6 15 1 10 15 51 24 58 13 3 -6 11 -5 20 2 7 6 21
9 29 5 9 -3 18 1 22 9 4 12 9 13 18 5 9 -8 15 -8 20 0 3 5 11 10 16 10 6 0 7
-5 4 -10 -9 -15 13 -12 79 11 34 12 65 28 69 35 4 8 15 14 22 14 8 0 15 4 15
10 0 5 16 30 35 56 19 25 35 56 35 69 0 13 5 27 10 30 6 4 8 10 5 15 -3 5 3
15 15 22 21 13 28 38 10 38 -5 0 -7 7 -4 15 4 8 13 15 21 15 7 0 13 6 11 14
-2 8 6 22 17 30 20 16 20 16 -2 22 -27 7 -30 19 -7 28 10 4 13 2 8 -7 -6 -9
-4 -9 8 1 9 7 19 25 23 40 9 36 57 111 72 112 14 0 145 144 155 169 3 10 3 24
-2 31 -6 9 -13 3 -26 -21 -9 -19 -22 -38 -29 -44 -6 -5 -29 -34 -50 -62 -22
-29 -43 -53 -48 -53 -5 0 8 19 27 42 20 23 34 48 31 56 -2 7 -1 11 4 7 5 -3
21 9 35 27 26 33 27 50 3 30 -8 -7 -17 -9 -21 -5 -8 9 -29 13 -83 16 -23 2
-45 6 -49 10 -4 4 -14 7 -22 7 -12 0 -12 -3 -1 -17 9 -12 5 -11 -11 3 -14 12
-32 22 -40 22 -35 3 -87 13 -110 22 -37 14 -90 19 -90 9 0 -5 -6 -9 -14 -9 -8
0 -17 -6 -19 -12 -4 -10 -6 -10 -6 -1 -1 7 -21 1 -53 -17 -92 -50 -202 -104
-219 -107 -9 -1 -29 -7 -45 -13 -16 -6 -31 -11 -33 -10 -2 1 -8 -4 -12 -12 -7
-10 -12 -11 -28 -1 -16 10 -20 9 -24 -8 -5 -17 -9 -19 -26 -10 -11 7 -22 7
-25 2 -3 -5 -15 -7 -26 -4 -26 7 -25 -1 3 -28 l22 -22 -39 22 c-22 13 -46 19
-55 15 -23 -10 -61 -11 -61 -2 0 4 -5 8 -11 8 -6 0 -9 -9 -6 -19 5 -19 4 -19
-26 -1 -23 14 -34 16 -44 8 -8 -6 -16 -8 -19 -5 -11 11 -65 -15 -60 -29 3 -8
1 -14 -3 -14 -5 0 -12 6 -14 13 -3 6 -6 3 -6 -8 -1 -13 -4 -16 -9 -8 -5 9 -18
3 -42 -20 -26 -24 -43 -32 -72 -32 -21 0 -38 -4 -38 -8 0 -5 -11 -6 -25 -3
-30 8 -65 -12 -65 -36 0 -23 -16 -32 -24 -13 -3 8 -10 15 -16 15 -17 0 -10
-140 11 -187 10 -24 16 -43 14 -43 -7 0 -56 94 -60 114 -2 12 -4 22 -6 24 -1
1 -2 5 -3 10 -1 4 -5 13 -9 20 -11 17 8 73 50 150 19 34 31 62 28 62 -4 0 3
12 14 26 31 40 25 52 -9 19 -16 -16 -28 -31 -25 -33 3 -3 -3 -14 -12 -25 -11
-12 -12 -17 -4 -12 10 5 12 4 7 -4 -4 -6 -11 -9 -16 -6 -10 6 -30 -26 -30 -46
0 -7 7 -4 15 7 12 15 12 11 -1 -18 -10 -20 -21 -35 -26 -32 -4 3 -10 -1 -13
-8 -3 -8 -15 -14 -25 -15 -12 -1 -18 3 -14 8 3 6 8 25 10 42 5 32 38 159 55
207 4 14 11 42 15 63 3 20 10 37 16 37 5 0 7 4 3 9 -3 6 3 45 14 88 25 103 47
203 62 283 7 36 16 69 21 74 13 15 -2 -96 -27 -207 -13 -56 -21 -103 -20 -105
4 -4 55 161 55 176 0 5 7 15 15 22 15 12 22 0 8 -14 -4 -3 -8 -12 -9 -19 -12
-67 -20 -92 -50 -154 -19 -40 -35 -76 -35 -80 0 -5 -8 -16 -16 -25 -9 -10 -12
-18 -6 -18 9 0 45 57 70 110 58 126 105 271 116 352 1 15 6 30 9 34 4 3 4 12
2 19 -3 7 -1 16 5 20 6 3 11 3 11 -2 0 -4 5 -48 11 -97 11 -93 -1 -183 -24
-169 -5 3 -7 2 -4 -4 8 -12 -33 -100 -74 -159 l-31 -46 20 -20 20 -20 12 23
c7 13 16 26 20 29 4 3 17 23 28 45 41 78 44 76 37 -20 -9 -143 -15 -187 -30
-237 -8 -29 -10 -50 -4 -53 5 -4 10 -1 10 4 3 20 5 26 36 91 17 36 38 92 48
125 9 33 21 65 25 70 5 6 11 24 14 40 3 16 10 51 15 79 18 93 26 209 26 377 0
133 2 163 12 150 7 -9 13 -19 13 -23 0 -4 11 -24 25 -44 15 -22 23 -46 21 -60
-3 -16 0 -21 9 -18 22 9 27 -32 11 -85 -9 -31 -11 -51 -5 -53 7 -2 7 -12 0
-28 l-10 -25 0 24 c-1 30 -6 25 -15 -12 -5 -21 -4 -27 5 -21 7 4 10 2 7 -7 -3
-8 -11 -13 -18 -11 -8 2 -11 -4 -7 -18 3 -11 1 -20 -4 -20 -5 0 -9 -8 -9 -17
0 -14 3 -13 16 5 8 12 19 20 23 17 5 -2 8 3 7 13 -1 24 43 142 54 142 9 0 50
-101 50 -125 0 -8 5 -17 10 -20 8 -5 7 -12 -2 -23 -7 -9 -8 -13 -2 -9 8 4 16
-9 23 -38 13 -54 14 -78 2 -70 -5 3 -12 -4 -16 -15 -4 -11 -31 -58 -61 -103
-40 -61 -46 -72 -20 -44 26 29 35 34 39 22 4 -8 1 -14 -4 -12 -6 1 -26 -18
-44 -43 -36 -48 -43 -66 -22 -54 15 9 -43 -58 -60 -69 -7 -4 -13 -13 -13 -19
0 -6 8 -4 18 5 9 8 22 17 27 19 6 2 9 7 7 11 -1 5 2 6 7 3 9 -6 74 54 144 134
37 41 38 42 32 14 -4 -16 -21 -42 -38 -58 -84 -76 -127 -119 -127 -129 0 -10
77 56 123 107 l28 31 -7 -35 c-3 -19 -13 -45 -21 -58 l-14 -23 26 17 c27 18
59 58 88 111 24 46 13 41 -19 -7 -41 -61 -38 -42 4 41 22 41 45 106 53 144 16
82 17 362 1 427 -6 24 -18 75 -28 113 -9 39 -25 88 -35 109 -22 47 -22 46 -8
46 21 0 143 -134 167 -183 13 -25 27 -49 32 -52 18 -11 108 -212 123 -275 21
-87 25 -182 7 -188 -13 -5 -81 -75 -135 -139 -21 -26 -23 -33 -11 -33 9 0 16
4 16 9 0 5 21 32 46 60 40 44 49 50 63 39 15 -12 15 -11 1 6 -14 18 -13 19 2
13 9 -3 19 -1 22 6 3 7 3 1 0 -13 -4 -14 -17 -37 -31 -51 -15 -16 -20 -29 -14
-33 5 -4 14 2 20 11 7 12 10 13 11 4 0 -23 27 6 33 37 3 15 17 70 31 121 14
52 26 101 26 109 0 8 8 21 18 29 16 13 16 14 -3 9 -18 -5 -21 -1 -21 27 -1
110 -29 263 -59 332 -13 28 -32 70 -43 95 -11 25 -30 54 -41 64 -12 11 -21 24
-21 31 0 6 -18 29 -40 50 -22 22 -38 45 -36 52 4 11 -210 13 -1112 13 -1053 0
-1118 -1 -1130 -17 -53 -78 -102 -156 -102 -163 0 -4 -7 -13 -15 -20 -8 -6
-13 -17 -12 -23 1 -7 -3 -11 -10 -10 -7 2 -10 -4 -7 -12 3 -8 -2 -24 -11 -37
-16 -22 -17 -21 -11 34 7 69 33 141 74 202 l31 46 -107 0 -108 0 -34 -102z
m1200 -278 c0 -28 -5 -50 -10 -50 -7 0 -9 16 -6 43 3 23 5 45 5 50 1 4 3 7 6
7 3 0 5 -22 5 -50z m-210 -32 c-5 -32 -6 -67 -3 -78 10 -39 -13 -20 -29 24
-18 48 -13 66 9 38 12 -15 13 -14 8 15 -4 21 -2 37 7 47 7 8 14 13 14 12 1 0
-2 -27 -6 -58z m882 -100 c-5 -5 -7 8 -6 29 4 76 8 87 11 34 2 -30 0 -58 -5
-63z m-687 5 c3 -26 13 -79 22 -117 8 -39 17 -82 19 -96 l4 -25 -11 25 c-17
40 -59 240 -58 279 1 35 1 35 9 8 5 -15 11 -49 15 -74z m721 20 c-6 -74 -21
-179 -32 -214 -2 -9 -11 -16 -19 -16 -10 0 -12 4 -5 12 5 7 6 16 2 20 -4 5 -2
5 4 2 14 -8 18 13 39 216 9 85 18 69 11 -20z m-948 -16 c13 -17 22 -55 27
-112 2 -27 1 -42 -1 -32 -3 9 -10 17 -15 17 -5 0 -8 3 -7 8 2 7 -21 80 -31 97
-9 17 -13 57 -5 74 5 12 8 10 15 -12 4 -16 12 -34 17 -40z m239 26 c-3 -10 -5
-4 -5 12 0 17 2 24 5 18 2 -7 2 -21 0 -30z m1138 -55 c-2 -10 0 -18 5 -18 21
0 53 -351 33 -363 -5 -3 -10 -1 -10 6 -2 79 -14 240 -17 246 -3 4 -10 39 -16
77 -6 38 -12 83 -15 99 l-5 30 14 -30 c8 -16 12 -38 11 -47z m-1143 -143 c12
-38 25 -72 28 -75 4 -3 19 -45 35 -95 15 -49 32 -96 38 -102 5 -7 6 -13 2 -13
-4 0 -3 -6 3 -12 5 -7 14 -29 20 -48 5 -19 13 -44 18 -55 4 -11 -10 3 -30 30
-21 28 -47 57 -57 65 -11 9 -21 29 -23 45 -5 35 -9 47 -44 135 -29 72 -41 92
-52 85 -4 -2 -15 4 -25 15 -17 19 -17 61 2 138 7 29 20 17 26 -23 8 -53 49
-175 58 -175 5 0 3 17 -5 38 -27 72 -57 222 -48 237 3 5 12 -19 19 -55 7 -36
23 -96 35 -135z m1033 119 l-15 -39 7 40 c6 44 15 65 20 49 2 -6 -3 -28 -12
-50z m-1329 8 c0 -4 4 -16 8 -27 14 -37 15 -44 5 -50 -5 -4 -9 -3 -8 2 1 4 -3
21 -9 36 -13 32 -16 64 -4 53 4 -4 7 -11 8 -14z m965 -87 c-10 -39 -10 -38 -6
15 8 93 8 96 12 60 2 -19 -1 -53 -6 -75z m89 -236 c-12 -23 -24 -39 -26 -36
-5 5 35 77 42 77 3 0 -5 -18 -16 -41z m397 -8 c2 -24 -42 -67 -52 -52 -3 7 -1
10 6 9 7 -2 17 12 22 30 11 36 22 42 24 13z m-10 -79 c-10 -10 -17 -23 -17
-28 0 -6 -17 -26 -37 -45 l-37 -34 32 41 c18 23 32 45 32 50 0 11 32 45 38 39
3 -3 -2 -13 -11 -23z m504 -189 c13 -16 12 -17 -3 -4 -17 13 -22 21 -14 21 2
0 10 -8 17 -17z m-1456 -43 c10 -11 14 -20 9 -20 -5 0 -15 9 -22 20 -7 11 -11
20 -9 20 2 0 12 -9 22 -20z m1793 -34 c-7 -8 -15 -12 -17 -11 -5 6 10 25 20
25 5 0 4 -6 -3 -14z m-1533 -45 c-4 -17 -10 -31 -15 -31 -7 0 -5 23 6 59 8 26
16 2 9 -28z m-172 -101 c6 -35 6 -35 -7 -7 -7 15 -15 24 -19 21 -4 -4 -7 1 -8
12 0 10 -2 30 -5 44 -4 24 -3 24 15 -5 10 -16 21 -46 24 -65z m1387 86 c0 -2
-8 -10 -17 -17 -16 -13 -17 -12 -4 4 13 16 21 21 21 13z m30 -6 c0 -5 -5 -10
-11 -10 -5 0 -7 5 -4 10 3 6 8 10 11 10 2 0 4 -4 4 -10z m-1995 -49 c-3 -6
-11 -11 -17 -11 -6 0 -6 6 2 15 14 17 26 13 15 -4z m2240 9 c5 -8 12 -7 23 2
15 11 15 11 5 -2 -12 -16 -63 -25 -63 -12 0 21 25 29 35 12z m-95 -15 c-7 -8
-16 -12 -21 -9 -13 8 -1 24 18 24 13 0 13 -3 3 -15z m50 5 c0 -5 -7 -10 -16
-10 -8 0 -12 5 -9 10 3 6 10 10 16 10 5 0 9 -4 9 -10z m-90 -4 c0 -3 -4 -8
-10 -11 -5 -3 -10 -1 -10 4 0 6 5 11 10 11 6 0 10 -2 10 -4z m-2862 -31 c-3
-3 -9 2 -12 12 -6 14 -5 15 5 6 7 -7 10 -15 7 -18z m112 4 c16 -30 8 -31 -13
-3 -10 13 -13 24 -8 24 6 0 15 -9 21 -21z m2696 6 c-11 -8 -25 -15 -30 -15 -6
0 -2 7 8 15 11 8 25 15 30 15 6 0 2 -7 -8 -15z m-2949 -47 c-3 -7 -5 -2 -5 12
0 14 2 19 5 13 2 -7 2 -19 0 -25z m1630 0 c-3 -7 -5 -2 -5 12 0 14 2 19 5 13
2 -7 2 -19 0 -25z m1213 12 c-8 -5 -17 -7 -19 -4 -3 3 1 9 9 14 8 5 17 7 19 4
3 -3 -1 -9 -9 -14z m-567 -18 c-3 -12 -10 -22 -15 -22 -5 0 -7 3 -5 8 2 4 7
16 11 26 9 25 17 16 9 -12z m-1383 -2 c6 -11 8 -20 6 -20 -3 0 -10 9 -16 20
-6 11 -8 20 -6 20 3 0 10 -9 16 -20z m2240 16 c0 -2 -8 -10 -17 -17 -16 -13
-17 -12 -4 4 13 16 21 21 21 13z m-1673 -38 c-3 -7 -5 -2 -5 12 0 14 2 19 5
13 2 -7 2 -19 0 -25z m133 -79 c-13 -31 -37 -41 -25 -11 3 9 12 37 18 62 l12
45 3 -34 c2 -18 -2 -46 -8 -62z m-1451 33 c1 -7 -3 -10 -9 -7 -5 3 -10 18 -9
33 0 24 1 25 9 7 5 -11 9 -26 9 -33z m2889 36 c-9 -7 -26 -44 -38 -83 -34
-114 -96 -182 -197 -216 -32 -11 -67 -24 -78 -29 -28 -14 -177 -29 -223 -23
-20 3 -40 10 -44 17 -6 8 -8 7 -8 -2 0 -7 -4 -11 -8 -8 -5 3 -23 8 -41 11 -31
5 -60 17 -118 48 -13 6 -23 18 -23 26 0 10 -3 11 -14 2 -22 -18 -27 2 -15 58
10 50 22 64 32 39 4 -8 8 -4 12 10 4 12 11 22 16 22 5 0 6 -6 4 -12 -2 -7 -6
-26 -9 -43 -3 -16 -8 -42 -11 -57 -3 -16 -2 -28 3 -28 5 0 9 6 9 13 1 42 26
126 40 131 13 5 14 1 9 -24 -20 -97 -15 -114 7 -24 7 26 18 50 26 52 10 3 12
-2 7 -19 -16 -61 -15 -70 2 -29 11 24 25 46 31 48 9 3 8 -7 -3 -32 -8 -20 -12
-36 -7 -36 4 0 13 17 21 37 11 32 14 35 20 18 6 -18 7 -18 12 3 4 12 11 22 18
22 6 0 8 -6 4 -12 -5 -10 -4 -10 6 -1 11 10 18 7 36 -12 17 -19 33 -25 63 -25
58 0 69 7 96 60 24 47 26 49 97 65 40 10 91 19 113 21 22 2 56 8 75 13 19 5
48 9 64 10 26 1 28 -1 14 -11z m-1761 -30 c-3 -8 -6 -5 -6 6 -1 11 2 17 5 13
3 -3 4 -12 1 -19z m200 -15 c-3 -10 -5 -4 -5 12 0 17 2 24 5 18 2 -7 2 -21 0
-30z m173 17 c0 -11 -4 -20 -9 -20 -7 0 -8 17 -2 38 4 10 11 -2 11 -18z m590
0 c0 -11 -4 -20 -9 -20 -5 0 -7 9 -4 20 3 11 7 20 9 20 2 0 4 -9 4 -20z
m-1961 -27 c0 -25 -1 -26 -9 -8 -12 27 -12 35 0 35 6 0 10 -12 9 -27z m890 0
c0 -25 -1 -25 -8 -8 -5 11 -7 23 -4 28 8 14 13 7 12 -20z m-969 2 c0 -8 -2
-15 -4 -15 -2 0 -6 7 -10 15 -3 8 -1 15 4 15 6 0 10 -7 10 -15z m133 -15 c-7
-28 -13 -25 -13 6 0 14 4 23 9 20 5 -3 7 -15 4 -26z m32 -28 c3 -39 0 -52 -12
-56 -13 -6 -15 0 -9 40 3 26 6 54 6 62 0 36 12 -1 15 -46z m-118 11 c-3 -10
-5 -4 -5 12 0 17 2 24 5 18 2 -7 2 -21 0 -30z m61 -9 c2 -30 -1 -44 -8 -39
-15 9 -12 85 4 85 1 0 2 -21 4 -46z m953 23 c-10 -9 -11 -8 -5 6 3 10 9 15 12
12 3 -3 0 -11 -7 -18z m-845 -29 c-3 -24 -5 -49 -5 -55 -1 -7 -5 -13 -11 -13
-11 0 -14 93 -3 103 17 17 24 3 19 -35z m49 -12 c-4 -25 -11 -46 -16 -46 -14
0 -11 88 4 93 18 6 19 3 12 -47z m895 34 c0 -11 5 -20 11 -20 5 0 7 5 4 10 -3
6 -1 10 4 10 6 0 11 -7 11 -15 0 -8 -7 -15 -15 -15 -10 0 -15 -10 -15 -27 0
-39 -6 -25 -13 30 -4 28 -3 47 3 47 6 0 10 -9 10 -20z m307 -2 c-3 -8 -6 -5
-6 6 -1 11 2 17 5 13 3 -3 4 -12 1 -19z m563 12 c0 -5 -5 -10 -11 -10 -5 0 -7
5 -4 10 3 6 8 10 11 10 2 0 4 -4 4 -10z m-624 -51 c-13 -28 -15 -30 -16 -11 0
23 23 68 28 54 1 -5 -4 -24 -12 -43z m-1446 9 c0 -6 -7 -5 -15 2 -8 7 -15 17
-15 22 0 6 7 5 15 -2 8 -7 15 -17 15 -22z m360 -7 c0 -41 -14 -62 -24 -36 -7
20 4 75 15 75 5 0 9 -18 9 -39z m41 18 c-2 -8 -3 -22 -3 -31 0 -10 -4 -20 -9
-24 -6 -3 -9 10 -7 35 1 24 6 40 12 37 6 -2 9 -10 7 -17z m97 -13 c2 -10 -2
-23 -9 -30 -9 -8 -11 -7 -6 7 4 12 1 17 -11 18 -14 1 -14 2 2 6 15 4 16 7 5
15 -12 8 -11 9 1 5 8 -2 17 -12 18 -21z m94 2 c-7 -7 -12 -8 -12 -2 0 14 12
26 19 19 2 -3 -1 -11 -7 -17z m-29 -8 c-5 -20 -15 -25 -26 -14 -9 9 4 34 18
34 8 0 11 -8 8 -20z m140 -5 c-7 -21 -13 -19 -13 6 0 11 4 18 10 14 5 -3 7
-12 3 -20z m472 -17 c-4 -24 -12 -47 -17 -53 -10 -9 -5 29 8 78 10 33 16 16 9
-25z m-1138 10 c-3 -8 -6 -5 -6 6 -1 11 2 17 5 13 3 -3 4 -12 1 -19z m622 -5
c-6 -16 -10 -30 -11 -33 0 -3 -2 -7 -5 -10 -3 -3 -3 6 0 20 4 14 7 31 7 38 0
6 4 12 10 12 6 0 6 -10 -1 -27z m618 5 c-3 -8 -6 -5 -6 6 -1 11 2 17 5 13 3
-3 4 -12 1 -19z m124 -11 c-8 -8 -11 -7 -11 4 0 20 13 34 18 19 3 -7 -1 -17
-7 -23z m-1306 -2 c0 -10 -6 -20 -12 -22 -8 -3 -13 5 -13 22 0 17 5 25 13 23
6 -3 12 -13 12 -23z m2375 15 c0 -5 -8 -10 -17 -10 -15 0 -16 2 -3 10 19 12
20 12 20 0z m-2053 -22 c-3 -8 -6 -5 -6 6 -1 11 2 17 5 13 3 -3 4 -12 1 -19z
m1058 13 c3 -5 -3 -17 -12 -27 -10 -10 -18 -22 -18 -27 0 -6 -5 -12 -12 -14
-7 -3 -9 3 -6 16 3 12 9 21 13 21 5 0 12 9 15 20 7 22 11 24 20 11z m-1320
-42 c-6 -9 -35 -1 -35 10 0 4 3 11 7 14 8 9 34 -13 28 -24z m542 9 c-3 -8 -6
-5 -6 6 -1 11 2 17 5 13 3 -3 4 -12 1 -19z m-81 -15 c-10 -10 -19 5 -10 18 6
11 8 11 12 0 2 -7 1 -15 -2 -18z m934 6 c0 -5 -4 -9 -8 -9 -5 0 -9 7 -9 15 0
8 4 12 9 9 4 -3 8 -9 8 -15z m-1352 -8 c3 -8 -1 -12 -9 -9 -7 2 -15 10 -17 17
-3 8 1 12 9 9 7 -2 15 -10 17 -17z m362 4 c0 -8 -7 -15 -15 -15 -9 0 -12 6 -9
15 4 8 10 15 15 15 5 0 9 -7 9 -15z m350 -37 c0 -64 -10 -128 -20 -128 -8 0
-6 60 4 119 6 33 5 46 -5 52 -11 7 -10 9 4 9 14 0 17 -9 17 -52z m590 45 c-1
-11 -26 -43 -34 -43 -10 0 -7 20 7 35 13 16 27 19 27 8z m556 -38 c-4 -14 -11
-25 -16 -25 -11 0 -7 41 6 62 11 18 18 -7 10 -37z m-1819 13 c-3 -8 -6 -5 -6
6 -1 11 2 17 5 13 3 -3 4 -12 1 -19z m283 13 c0 -6 -4 -13 -10 -16 -5 -3 -10
1 -10 9 0 9 5 16 10 16 6 0 10 -4 10 -9z m1415 -1 c-3 -5 -11 -10 -16 -10 -6
0 -7 5 -4 10 3 6 11 10 16 10 6 0 7 -4 4 -10z m-1465 -8 c0 -13 -12 -22 -22
-16 -10 6 -1 24 13 24 5 0 9 -4 9 -8z m480 -72 c-6 -29 -10 -54 -10 -56 0 -2
-5 -4 -11 -4 -7 0 -9 10 -4 28 12 44 13 55 15 87 0 24 2 27 10 14 6 -11 6 -36
0 -69z m-530 60 c0 -5 -4 -10 -10 -10 -5 0 -10 5 -10 10 0 6 5 10 10 10 6 0
10 -4 10 -10z m795 -20 c-12 -13 -22 -17 -28 -11 -11 11 0 34 13 26 5 -3 12 0
15 6 4 5 10 8 13 5 3 -3 -3 -15 -13 -26z m292 3 c-9 -9 -19 -14 -22 -11 -3 3
2 13 11 22 9 9 19 14 22 11 3 -3 -2 -13 -11 -22z m513 5 c0 -16 -3 -19 -11
-11 -6 6 -8 16 -5 22 11 17 16 13 16 -11z m-1030 -35 c0 -19 -13 -9 -16 12 -1
8 2 13 7 9 5 -3 9 -12 9 -21z m860 23 c0 -2 -3 -11 -6 -20 -9 -23 -24 -20 -24
4 0 11 7 20 15 20 8 0 15 -2 15 -4z m29 -60 c-9 -8 -10 -7 -5 7 3 10 7 24 7
30 1 7 3 4 6 -7 3 -10 -1 -23 -8 -30z m141 34 c0 -5 -5 -10 -11 -10 -5 0 -7 5
-4 10 3 6 8 10 11 10 2 0 4 -4 4 -10z m-1355 -10 c-3 -5 -1 -10 5 -10 6 0 8
-4 5 -10 -3 -5 -14 -10 -23 -9 -10 0 -12 3 -5 5 7 3 9 12 6 20 -3 8 0 14 7 14
6 0 8 -4 5 -10z m-614 -73 c-8 -8 -11 -1 -11 24 0 46 14 60 18 19 2 -18 -1
-37 -7 -43z m579 57 c0 -2 -9 -4 -20 -4 -11 0 -20 4 -20 9 0 5 9 7 20 4 11 -3
20 -7 20 -9z m1300 2 c0 -8 -4 -18 -10 -21 -5 -3 -10 3 -10 14 0 12 5 21 10
21 6 0 10 -6 10 -14z m-1921 -50 c-9 -8 -10 -7 -5 7 3 10 7 26 7 35 1 9 4 6 6
-7 3 -13 -1 -28 -8 -35z m1961 50 c0 -3 -4 -8 -10 -11 -5 -3 -10 -1 -10 4 0 6
5 11 10 11 6 0 10 -2 10 -4z m-1500 -77 c0 -48 -4 -68 -14 -72 -15 -6 -15 5
-1 74 4 23 3 39 -4 43 -16 10 -14 23 4 23 12 0 15 -14 15 -68z m49 6 c-1 -36
-6 -68 -11 -71 -5 -3 -4 -11 1 -18 8 -9 6 -13 -5 -13 -13 0 -15 9 -11 46 3 25
8 55 11 66 2 11 5 28 5 38 1 9 3 17 7 17 3 0 4 -29 3 -65z m337 43 c-1 -13 -7
-32 -14 -43 -10 -18 -11 -16 -12 17 0 20 6 39 13 41 6 3 12 6 13 6 0 1 0 -9 0
-21z m1159 12 c-3 -5 -13 -10 -21 -10 -8 0 -12 5 -9 10 3 6 13 10 21 10 8 0
12 -4 9 -10z m-1650 -66 c-4 -38 -3 -54 5 -54 6 0 8 -5 5 -10 -14 -22 -35 20
-35 68 0 51 6 66 22 56 6 -4 7 -29 3 -60z m36 20 l-9 -39 -1 36 c-1 20 2 39 6
42 12 13 13 0 4 -39z m219 31 c-10 -12 -10 -15 0 -15 7 0 10 -7 6 -16 -3 -9
-9 -27 -12 -40 -5 -19 -3 -23 10 -18 9 4 16 18 16 34 0 33 9 60 20 60 4 0 6
-10 5 -22 -1 -13 -3 -31 -4 -40 0 -9 -7 -23 -15 -30 -8 -8 -16 -23 -18 -34 -2
-10 -11 -20 -20 -22 -14 -3 -16 6 -14 68 2 49 7 74 17 81 20 13 23 11 9 -6z
m357 -7 c-3 -8 -6 -5 -6 6 -1 11 2 17 5 13 3 -3 4 -12 1 -19z m869 -3 c-3 -9
-10 -13 -16 -10 -6 4 -5 11 3 20 15 16 22 11 13 -10z m-1736 1 c0 -8 -7 -16
-15 -20 -15 -5 -21 14 -8 27 11 12 23 8 23 -7z m94 -43 c-9 -77 -18 -85 -22
-18 -3 56 2 75 19 75 5 0 7 -23 3 -57z m112 0 c-10 -82 -28 -95 -25 -18 2 66
5 75 21 75 7 0 9 -19 4 -57z m-156 17 c0 -21 -5 -30 -16 -30 -11 0 -14 5 -9
18 4 9 8 23 8 30 1 27 17 10 17 -18z m415 -5 c-1 -14 -5 -28 -8 -32 -4 -3 -2
-14 4 -24 10 -19 -3 -59 -19 -59 -11 0 -12 72 -1 113 11 41 29 42 24 2z m223
15 c-14 -22 -24 -19 -15 5 4 8 11 15 17 15 6 0 6 -7 -2 -20z m-94 -5 c-4 -8
-8 -15 -10 -15 -2 0 -4 7 -4 15 0 8 4 15 10 15 5 0 7 -7 4 -15z m1381 5 c-3
-5 -12 -10 -18 -10 -7 0 -6 4 3 10 19 12 23 12 15 0z m-1655 -33 c0 -18 -6
-42 -14 -52 -13 -18 -14 -17 -9 10 12 82 23 101 23 42z m1455 23 c-3 -5 -11
-10 -16 -10 -6 0 -7 5 -4 10 3 6 11 10 16 10 6 0 7 -4 4 -10z m235 0 c0 -5 -5
-10 -11 -10 -5 0 -7 5 -4 10 3 6 8 10 11 10 2 0 4 -4 4 -10z m-2014 -68 c-12
-11 -16 6 -9 39 l8 34 3 -33 c2 -19 1 -36 -2 -40z m660 -9 c-3 -8 -10 -12 -16
-8 -6 4 -6 15 0 31 5 13 9 28 9 32 -1 4 0 12 1 17 2 6 5 -5 7 -23 3 -19 2 -41
-1 -49z m1142 43 c-23 -22 -38 -24 -38 -5 0 5 7 9 15 9 8 0 15 7 15 15 0 9 6
12 15 9 13 -5 12 -10 -7 -28z m122 24 c0 -5 -4 -10 -10 -10 -5 0 -10 5 -10 10
0 6 5 10 10 10 6 0 10 -4 10 -10z m-1369 -84 l-22 -21 18 42 c14 34 19 38 21
21 2 -11 -6 -30 -17 -42z m62 23 c-3 -10 -12 -19 -20 -19 -8 0 -12 6 -9 13 3
6 9 20 12 30 9 24 24 2 17 -24z m84 9 c-3 -8 -6 -5 -6 6 -1 11 2 17 5 13 3 -3
4 -12 1 -19z m-666 -31 c-8 -8 -11 -5 -11 9 0 27 14 41 18 19 2 -9 -1 -22 -7
-28z m220 -19 c6 -13 8 -20 4 -16 -5 4 -14 3 -20 -2 -9 -8 -11 -4 -7 15 5 31
8 31 23 3z"/>
<path d="M2730 3530 c17 -33 17 -33 24 -22 3 5 -4 18 -16 28 -21 19 -21 19 -8
-6z"/>
<path d="M3862 2548 c-3 -37 7 -33 14 6 2 14 1 26 -4 26 -4 0 -9 -14 -10 -32z"/>
<path d="M4307 4183 c9 -16 33 -46 53 -68 53 -57 86 -119 126 -237 39 -112 52
-172 53 -230 1 -34 -4 -41 -40 -64 -52 -33 -42 -45 12 -15 l41 23 -7 -58 c-4
-33 -8 -69 -10 -82 -2 -12 0 -20 4 -18 7 5 30 85 45 156 3 14 18 33 33 42 15
9 40 27 55 40 14 13 40 34 57 48 59 48 96 85 109 109 21 40 2 38 -34 -4 -19
-22 -39 -39 -45 -37 -6 1 -8 -2 -5 -7 5 -8 -4 -15 -26 -20 -8 -2 -54 -43 -100
-89 l-28 -27 0 37 c0 29 3 36 15 32 9 -4 15 0 15 9 0 9 7 20 15 24 40 23 58
275 26 393 l-17 65 -62 3 c-69 3 -70 0 -26 -66 55 -80 85 -238 67 -351 -12
-79 -29 -75 -24 6 6 122 -30 265 -92 366 l-29 47 -99 0 -99 0 17 -27z"/>
<path d="M4825 3921 c-3 -5 -2 -12 3 -15 5 -3 9 1 9 9 0 17 -3 19 -12 6z"/>
<path d="M3559 3518 c-5 -18 -6 -38 -1 -34 7 8 12 36 6 36 -2 0 -4 -1 -5 -2z"/>
<path d="M3907 3444 c-10 -13 -14 -24 -10 -24 9 0 36 40 31 45 -2 2 -11 -8
-21 -21z"/>
<path d="M1834 3411 c20 -25 36 -50 36 -57 0 -7 4 -15 8 -18 5 -3 9 1 9 9 0 8
-20 36 -45 62 l-44 48 36 -44z"/>
<path d="M2502 3393 c7 -15 18 -36 26 -45 9 -10 12 -18 8 -18 -8 0 21 -55 43
-82 8 -10 11 -18 7 -18 -3 0 1 -14 10 -32 14 -27 18 -29 26 -15 10 19 2 41
-12 32 -4 -3 -7 3 -5 12 3 23 -14 45 -29 36 -7 -4 -7 -1 1 7 9 10 9 18 0 34
-6 12 -11 24 -12 27 0 3 -8 13 -17 23 -10 10 -18 24 -18 31 0 8 -9 19 -20 25
-19 10 -19 9 -8 -17z"/>
<path d="M3930 3411 c0 -4 -10 -23 -23 -42 -23 -35 -40 -69 -32 -69 5 0 60 82
68 103 3 9 2 17 -3 17 -6 0 -10 -4 -10 -9z"/>
<path d="M3874 3385 c-9 -14 -15 -27 -13 -30 3 -2 12 10 21 26 21 36 15 39 -8
4z"/>
<path d="M1817 3358 c22 -24 43 -50 46 -58 4 -11 6 -11 6 -2 1 17 -68 102 -82
102 -6 0 7 -19 30 -42z"/>
<path d="M4222 3308 c-28 -35 -62 -74 -76 -87 -14 -14 -26 -30 -26 -38 0 -7
-4 -13 -10 -13 -12 0 -14 27 -2 32 14 6 72 83 72 95 0 24 -15 13 -42 -31 -15
-23 -50 -71 -78 -106 -57 -72 -58 -98 -1 -31 23 27 40 39 42 32 5 -13 82 70
130 139 13 19 30 41 37 48 12 14 15 22 8 22 -2 0 -27 -28 -54 -62z"/>
<path d="M4419 3343 l-24 -28 28 24 c15 14 27 26 27 28 0 8 -8 1 -31 -24z"/>
<path d="M2450 3328 c0 -9 5 -20 10 -23 13 -8 13 5 0 25 -8 13 -10 13 -10 -2z"/>
<path d="M4520 3326 c0 -8 -8 -17 -18 -20 -9 -3 -23 -16 -31 -27 -9 -15 2 -9
33 16 50 41 53 45 31 45 -8 0 -15 -6 -15 -14z"/>
<path d="M2080 3322 c0 -4 6 -14 13 -21 10 -11 9 -12 -3 -6 -8 5 1 -9 21 -31
20 -22 44 -55 55 -72 10 -18 25 -32 34 -32 9 0 21 -5 28 -12 15 -15 38 4 27
22 -6 9 -9 9 -15 0 -9 -15 -95 72 -121 123 -17 33 -39 50 -39 29z"/>
<path d="M2140 3313 c0 -23 90 -132 104 -127 8 3 21 -5 30 -17 8 -13 19 -20
23 -16 4 4 -10 24 -30 45 -20 21 -37 43 -37 48 0 6 -10 19 -21 30 -22 19 -22
19 -10 -3 8 -15 8 -23 1 -23 -5 0 -10 3 -10 8 0 13 -49 67 -50 55z"/>
<path d="M2420 3305 c0 -25 67 -144 123 -216 15 -20 27 -41 27 -46 0 -6 7 -16
15 -23 26 -21 17 6 -17 56 -18 25 -42 63 -53 83 -12 20 -30 52 -40 71 -25 44
-55 85 -55 75z"/>
<path d="M4539 3283 l-24 -28 25 21 c14 12 32 24 40 27 13 5 13 6 -1 6 -8 1
-26 -11 -40 -26z"/>
<path d="M2470 3286 c0 -8 53 -109 61 -116 3 -3 14 -19 23 -37 18 -36 44 -59
32 -27 -5 10 -9 25 -9 32 0 6 -3 10 -5 7 -6 -5 -26 26 -43 68 -6 15 -15 27
-20 27 -5 0 -9 6 -9 14 0 7 -7 19 -15 26 -8 7 -15 10 -15 6z"/>
<path d="M3854 3282 c-6 -4 -17 -18 -24 -32 -12 -23 -12 -24 4 -11 15 13 41
51 34 51 -2 0 -8 -4 -14 -8z"/>
<path d="M4269 3253 l-34 -36 38 28 c20 15 37 31 37 36 0 14 -4 11 -41 -28z"/>
<path d="M3570 3268 c-2 -5 -3 -12 -4 -16 -2 -13 -82 -102 -92 -102 -4 0 -3 5
4 12 9 9 8 16 -5 30 -21 23 -30 23 -38 -2 -3 -11 -13 -20 -20 -20 -8 0 -12 -6
-9 -14 3 -8 1 -17 -5 -21 -6 -3 -11 -11 -11 -17 0 -6 10 2 22 18 28 36 45 54
51 54 11 0 0 -32 -14 -42 -11 -8 -11 -9 4 -4 24 8 22 4 -25 -45 -48 -49 -72
-83 -73 -102 -1 -19 -23 -64 -34 -72 -6 -3 -11 -14 -11 -24 0 -10 -7 -31 -14
-47 -8 -15 -13 -31 -10 -36 7 -12 34 -10 34 3 0 5 -4 7 -10 4 -5 -3 -10 -4
-10 0 0 10 52 108 64 120 7 7 34 40 61 74 28 33 53 61 58 61 4 0 7 5 7 10 0
19 -15 10 -69 -40 -83 -76 -75 -60 14 29 43 44 82 78 87 75 5 -3 7 -2 6 3 -1
4 10 27 26 50 15 23 26 48 23 55 -3 7 -6 10 -7 6z"/>
<path d="M4479 3243 c-13 -17 -13 -17 6 -3 11 8 22 16 24 17 2 2 0 3 -6 3 -6
0 -17 -8 -24 -17z"/>
<path d="M5569 3124 c-58 -71 -72 -97 -66 -129 3 -20 4 -20 12 0 13 30 66 117
85 140 16 18 33 55 27 55 -2 0 -28 -30 -58 -66z"/>
<path d="M2627 3159 c-4 -16 -3 -18 9 -8 7 6 11 15 8 20 -8 13 -11 11 -17 -12z"/>
<path d="M3186 3115 c-3 -8 -1 -15 4 -15 6 0 10 7 10 15 0 8 -2 15 -4 15 -2 0
-6 -7 -10 -15z"/>
<path d="M3774 3099 c-19 -22 -19 -22 3 -10 24 12 39 31 25 31 -5 0 -17 -10
-28 -21z"/>
<path d="M5427 3025 c-19 -40 -20 -45 -9 -45 13 0 40 57 33 69 -4 7 -14 -3
-24 -24z"/>
<path d="M1170 2995 c0 -8 -4 -23 -9 -33 -20 -38 -49 -122 -43 -122 8 0 42 74
42 93 0 6 7 21 15 31 17 23 20 46 5 46 -5 0 -10 -7 -10 -15z"/>
<path d="M5181 2964 c0 -11 3 -14 6 -6 3 7 2 16 -1 19 -3 4 -6 -2 -5 -13z"/>
<path d="M1192 2938 c-14 -14 -16 -42 -3 -34 7 5 23 46 17 46 -1 0 -7 -5 -14
-12z"/>
<path d="M5201 2914 c0 -11 3 -14 6 -6 3 7 2 16 -1 19 -3 4 -6 -2 -5 -13z"/>
<path d="M3152 2786 c6 -8 -28 -125 -57 -191 -13 -31 -14 -37 -2 -27 12 10 14
9 12 -5 -4 -38 -17 -55 -40 -49 -16 4 -25 1 -29 -11 -9 -23 -3 -25 35 -9 22 9
41 27 52 51 19 39 21 49 10 42 -5 -3 -8 8 -8 23 0 16 3 32 8 36 4 4 7 18 7 30
0 13 5 26 10 29 6 4 8 10 5 15 -3 5 -1 20 5 34 6 18 6 27 -3 32 -7 4 -9 4 -5
0z"/>
<path d="M5181 2764 c0 -11 3 -14 6 -6 3 7 2 16 -1 19 -3 4 -6 -2 -5 -13z"/>
<path d="M5191 2720 c0 -14 6 -34 14 -44 8 -11 15 -15 15 -9 0 7 -5 15 -10 18
-6 4 -9 9 -6 13 2 4 0 16 -5 27 -7 18 -8 18 -8 -5z"/>
<path d="M5178 2633 c-10 -2 -18 -9 -18 -15 0 -6 3 -8 7 -5 3 4 11 3 17 -3 8
-6 12 -3 12 11 0 10 0 18 -1 18 0 -1 -8 -3 -17 -6z"/>
<path d="M3025 2530 c-10 -11 -12 -20 -6 -24 5 -4 13 3 16 14 5 16 10 18 20
10 9 -8 15 -8 20 0 3 5 5 10 3 11 -27 7 -39 4 -53 -11z"/>
<path d="M5140 2370 c0 -16 4 -30 8 -30 5 0 7 14 4 30 -2 17 -6 30 -8 30 -2 0
-4 -13 -4 -30z"/>
<path d="M1406 2324 c-8 -21 -8 -39 1 -30 8 7 15 46 9 46 -2 0 -7 -7 -10 -16z"/>
<path d="M3715 2320 c-3 -5 1 -10 9 -10 8 0 18 5 21 10 3 6 -1 10 -9 10 -8 0
-18 -4 -21 -10z"/>
<path d="M2610 2302 c0 -10 22 -32 32 -32 15 0 8 28 -8 34 -21 8 -24 8 -24 -2z"/>
<path d="M2522 2245 c6 -14 15 -25 20 -25 5 0 1 11 -8 25 -9 14 -18 25 -20 25
-2 0 2 -11 8 -25z"/>
<path d="M5101 2164 c0 -11 3 -14 6 -6 3 7 2 16 -1 19 -3 4 -6 -2 -5 -13z"/>
<path d="M1511 2124 c0 -11 3 -14 6 -6 3 7 2 16 -1 19 -3 4 -6 -2 -5 -13z"/>
<path d="M5055 2080 c6 -30 16 -40 12 -12 -2 12 -6 24 -10 28 -3 4 -4 -4 -2
-16z"/>
<path d="M4968 2010 c2 -22 8 -42 12 -45 9 -6 1 67 -9 77 -3 4 -5 -10 -3 -32z"/>
<path d="M4790 2010 c0 -11 4 -20 9 -20 5 0 7 9 4 20 -3 11 -7 20 -9 20 -2 0
-4 -9 -4 -20z"/>
<path d="M1565 1985 c-4 -16 -11 -45 -17 -63 -5 -18 -8 -35 -5 -38 7 -7 39
104 34 118 -2 7 -8 0 -12 -17z"/>
<path d="M3035 1915 c17 -14 36 -23 43 -20 6 2 12 -2 12 -10 0 -8 10 -17 23
-19 83 -17 87 -16 143 19 54 35 65 45 42 41 -40 -8 -67 -19 -64 -25 11 -17
-161 6 -191 25 -36 23 -41 15 -8 -11z"/>
<path d="M4883 1858 c5 -29 14 -57 20 -63 7 -7 8 -5 4 6 -3 9 -9 37 -12 63 -4
25 -11 46 -15 46 -4 0 -3 -24 3 -52z"/>
<path d="M4933 1855 c0 -22 2 -30 4 -17 2 12 2 30 0 40 -3 9 -5 -1 -4 -23z"/>
<path d="M1526 1853 c-2 -10 -7 -31 -10 -48 -9 -45 -15 -68 -22 -92 -4 -15 -2
-23 5 -23 7 0 10 3 8 8 -3 4 0 18 5 32 6 14 12 42 14 63 2 21 9 47 14 58 7 12
7 19 1 19 -5 0 -12 -8 -15 -17z"/>
<path d="M1662 1780 c0 -14 2 -19 5 -12 2 6 2 18 0 25 -3 6 -5 1 -5 -13z"/>
<path d="M4900 1764 c0 -9 -5 -12 -12 -8 -10 6 -10 5 -1 -7 6 -8 13 -27 16
-44 2 -19 5 -11 6 23 0 28 -1 52 -4 52 -3 0 -5 -7 -5 -16z"/>
<path d="M4933 1735 c0 -8 4 -12 9 -9 5 3 6 10 3 15 -9 13 -12 11 -12 -6z"/>
<path d="M4755 1671 c-3 -5 -2 -12 3 -15 5 -3 9 1 9 9 0 17 -3 19 -12 6z"/>
<path d="M4812 1655 c0 -16 2 -22 5 -12 2 9 2 23 0 30 -3 6 -5 -1 -5 -18z"/>
<path d="M3560 1645 c-13 -14 -31 -24 -40 -23 -8 1 -21 -2 -29 -6 -11 -7 -13
-5 -7 9 7 18 6 18 -14 0 -21 -19 -27 -50 -10 -60 5 -3 7 0 4 8 -3 8 0 18 7 23
8 5 10 3 4 -6 -6 -10 -4 -12 10 -7 14 6 16 3 12 -14 -4 -16 -3 -19 6 -10 18
18 29 13 17 -9 -8 -15 -8 -18 3 -14 8 3 21 -9 32 -31 20 -35 43 -50 30 -17 -4
9 -9 27 -10 40 -2 13 -9 29 -15 37 -19 23 3 41 51 44 43 2 88 24 71 35 -5 3
-15 -1 -22 -9 -7 -8 -17 -15 -23 -15 -5 0 -2 8 7 19 16 17 16 19 -3 24 -11 3
-28 -1 -38 -9 -24 -18 -38 -18 -23 1 20 25 5 17 -20 -10z m70 6 c0 -5 -7 -12
-16 -15 -14 -5 -15 -4 -4 9 14 17 20 19 20 6z m-70 -36 c-7 -9 -15 -13 -18
-10 -3 2 1 11 8 20 7 9 15 13 18 10 3 -2 -1 -11 -8 -20z"/>
<path d="M4761 1624 c0 -11 3 -14 6 -6 3 7 2 16 -1 19 -3 4 -6 -2 -5 -13z"/>
<path d="M2647 1619 c7 -7 15 -10 18 -7 3 3 -2 9 -12 12 -14 6 -15 5 -6 -5z"/>
<path d="M4348 1599 c-34 -32 -25 -29 26 9 16 12 24 22 18 22 -7 0 -26 -14
-44 -31z"/>
<path d="M4418 1600 l-33 -31 40 26 c48 32 52 35 37 35 -7 0 -26 -14 -44 -30z"/>
<path d="M4473 1600 c-13 -5 -23 -12 -23 -15 0 -9 16 -5 36 10 22 16 19 18
-13 5z"/>
<path d="M1726 1583 c-6 -14 -5 -15 5 -6 7 7 10 15 7 18 -3 3 -9 -2 -12 -12z"/>
<path d="M1787 1560 c-3 -11 -1 -20 4 -20 5 0 9 9 9 20 0 11 -2 20 -4 20 -2 0
-6 -9 -9 -20z"/>
<path d="M1826 1564 c-7 -18 -8 -60 -2 -53 7 6 17 69 12 69 -2 0 -7 -7 -10
-16z"/>
<path d="M4419 1563 c-13 -16 -12 -17 4 -4 9 7 17 15 17 17 0 8 -8 3 -21 -13z"/>
<path d="M4764 1542 c2 -24 7 -46 10 -49 10 -10 6 61 -4 77 -7 11 -9 2 -6 -28z"/>
<path d="M1666 1519 c-8 -39 -12 -119 -5 -119 7 0 21 132 14 138 -2 2 -6 -6
-9 -19z"/>
<path d="M1981 1534 c6 -17 89 -84 102 -83 8 0 8 2 0 6 -7 2 -13 9 -13 14 0 6
9 5 21 -1 11 -6 25 -9 32 -7 7 3 0 8 -15 12 -16 4 -28 11 -28 16 0 13 24 11
40 -3 11 -10 11 -9 0 6 -14 18 -13 19 8 14 19 -5 21 -4 11 8 -8 10 -16 11 -22
5 -6 -6 -18 -4 -35 7 -25 16 -25 16 -13 -6 8 -15 8 -22 1 -22 -6 0 -8 -4 -5
-10 9 -15 -8 -12 -31 5 -18 14 -18 14 6 15 20 0 22 2 10 10 -9 6 -18 6 -24 0
-6 -6 -17 -3 -29 8 -11 9 -18 12 -16 6z"/>
<path d="M1812 1480 c0 -14 2 -19 5 -12 2 6 2 18 0 25 -3 6 -5 1 -5 -13z"/>
<path d="M4722 1460 c0 -19 2 -27 5 -17 2 9 2 25 0 35 -3 9 -5 1 -5 -18z"/>
<path d="M4772 1460 c0 -14 2 -19 5 -12 2 6 2 18 0 25 -3 6 -5 1 -5 -13z"/>
<path d="M1792 1410 c-5 -22 -6 -40 -2 -40 7 0 22 71 16 77 -2 2 -8 -14 -14
-37z"/>
<path d="M4613 1390 c0 -25 2 -35 4 -22 2 12 2 32 0 45 -2 12 -4 2 -4 -23z"/>
<path d="M1875 1360 c3 -5 8 -10 11 -10 2 0 4 5 4 10 0 6 -5 10 -11 10 -5 0
-7 -4 -4 -10z"/>
<path d="M4660 1341 c0 -6 4 -13 10 -16 6 -3 7 1 4 9 -7 18 -14 21 -14 7z"/>
<path d="M1925 1320 c3 -5 8 -10 11 -10 2 0 4 5 4 10 0 6 -5 10 -11 10 -5 0
-7 -4 -4 -10z"/>
<path d="M1990 1109 c0 -17 4 -28 10 -24 6 3 10 17 10 31 0 13 -4 24 -10 24
-5 0 -10 -14 -10 -31z"/>
</g>
</svg>
